<?xml version="1.0" standalone="no"?>
<!DOCTYPE svg PUBLIC "-//W3C//DTD SVG 20010904//EN"
 "http://www.w3.org/TR/2001/REC-SVG-20010904/DTD/svg10.dtd">
<svg version="1.0" xmlns="http://www.w3.org/2000/svg"
 width="2000.000000pt" height="2000.000000pt" viewBox="0 0 2000.000000 2000.000000"
 preserveAspectRatio="xMidYMid meet">
<metadata>
Created by potrace 1.14, written by Peter Selinger 2001-2017
</metadata>
<g transform="translate(0.000000,2000.000000) scale(0.100000,-0.100000)"
fill="#000000" stroke="none">
<path d="M8566 18442 c-2 -4 -38 -9 -78 -10 -40 -2 -82 -4 -93 -6 -11 -2 -25
1 -32 6 -7 5 -14 5 -17 -1 -4 -5 -15 -8 -26 -6 -11 2 -22 0 -25 -6 -4 -5 -11
-9 -16 -9 -6 0 -7 5 -3 12 5 7 3 8 -6 3 -14 -9 -45 -12 -137 -17 -35 -1 -63
-7 -63 -11 0 -5 -7 -4 -15 3 -8 7 -15 8 -15 3 0 -5 -20 -9 -45 -8 -25 0 -45
-2 -45 -5 0 -3 -23 -5 -50 -5 -27 0 -50 -3 -50 -8 0 -4 -16 -5 -35 -3 -19 3
-35 1 -35 -3 0 -4 -16 -6 -35 -5 -20 2 -34 0 -31 -4 3 -5 -18 -8 -45 -7 -28 1
-49 -3 -49 -9 0 -6 -5 -4 -10 4 -5 8 -10 10 -10 3 0 -6 -11 -10 -25 -8 -14 1
-28 -1 -30 -6 -3 -4 -17 -6 -30 -3 -14 2 -25 1 -25 -4 0 -4 -20 -8 -45 -7 -25
0 -45 -3 -45 -7 0 -4 -9 -5 -20 -3 -11 2 -20 -2 -20 -8 0 -7 -4 -6 -10 3 -6 9
-10 10 -10 3 0 -8 -13 -11 -35 -9 -19 1 -36 -1 -37 -6 -2 -4 -18 -8 -36 -10
-19 -1 -36 -6 -39 -11 -2 -4 -11 -3 -19 4 -8 6 -14 7 -14 2 0 -5 -10 -10 -22
-11 -38 -4 -52 -7 -67 -16 -11 -7 -12 -6 -6 5 7 11 6 12 -7 2 -8 -7 -18 -10
-21 -6 -4 3 -7 2 -7 -3 0 -5 -12 -9 -27 -8 -16 1 -34 -4 -42 -10 -12 -9 -13
-8 -6 4 7 12 6 13 -6 4 -8 -7 -38 -15 -66 -19 -29 -4 -53 -10 -53 -15 0 -4
-11 -6 -25 -5 -14 2 -25 0 -25 -5 0 -4 -16 -6 -35 -4 -24 2 -33 -1 -29 -8 5
-7 2 -9 -9 -5 -9 3 -19 2 -22 -3 -3 -5 -14 -7 -25 -5 -11 2 -22 -1 -25 -6 -4
-5 -10 -7 -15 -4 -5 3 -11 1 -15 -5 -4 -7 -13 -6 -27 1 -12 6 -18 7 -14 1 5
-9 -57 -28 -76 -24 -5 1 -8 -3 -8 -9 0 -5 -4 -7 -10 -4 -5 3 -19 1 -30 -5 -15
-8 -20 -8 -20 2 0 8 -4 6 -10 -4 -6 -9 -19 -15 -30 -13 -11 2 -32 -2 -46 -10
-15 -7 -35 -12 -45 -10 -11 2 -19 -1 -19 -6 0 -6 -4 -7 -10 -4 -5 3 -10 2 -10
-2 0 -5 -8 -9 -17 -10 -37 -3 -88 -15 -99 -24 -7 -5 -16 -9 -20 -8 -5 1 -16 0
-24 -4 -22 -8 -132 -40 -155 -44 -11 -2 -24 -8 -29 -13 -4 -4 -15 -6 -22 -3
-8 3 -14 0 -14 -7 0 -6 -4 -8 -10 -5 -5 3 -16 3 -22 -2 -7 -4 -16 -8 -20 -9
-5 -1 -9 -2 -10 -4 -4 -2 -41 -11 -55 -12 -7 -1 -13 -5 -13 -10 0 -5 -4 -6
-10 -3 -5 3 -10 1 -10 -5 0 -6 -4 -9 -9 -5 -5 3 -20 1 -33 -4 -42 -17 -63 -24
-82 -28 -11 -2 -25 -8 -33 -14 -7 -6 -13 -8 -13 -4 0 4 -12 0 -26 -10 -15 -9
-24 -12 -20 -6 4 5 -6 4 -21 -4 -15 -8 -36 -15 -46 -15 -10 0 -16 -4 -13 -9 4
-5 -2 -8 -11 -7 -10 2 -28 -4 -40 -12 -13 -8 -23 -11 -23 -7 0 4 -6 2 -13 -4
-8 -6 -17 -8 -20 -4 -4 3 -7 1 -7 -6 0 -8 -7 -11 -15 -7 -8 3 -15 1 -15 -5 0
-6 -4 -7 -10 -4 -5 3 -10 1 -10 -6 0 -7 -3 -10 -6 -6 -4 3 -19 0 -35 -9 -16
-8 -30 -14 -31 -14 -6 2 -45 -12 -70 -26 -16 -8 -28 -12 -28 -8 0 3 -7 1 -15
-6 -8 -7 -15 -9 -15 -4 0 5 -4 3 -8 -3 -7 -11 -32 -19 -65 -22 -5 -1 -6 -5 -3
-9 3 -5 0 -9 -7 -10 -22 -2 -42 -8 -63 -20 -12 -6 -24 -8 -28 -5 -3 3 -6 1 -6
-6 0 -7 -4 -9 -10 -6 -5 3 -10 1 -10 -5 0 -7 -7 -10 -15 -6 -8 3 -15 1 -15 -4
0 -6 -5 -10 -10 -10 -6 0 -30 -9 -52 -20 -23 -11 -48 -20 -55 -20 -7 0 -13 -5
-13 -11 0 -5 -4 -8 -9 -5 -5 3 -14 -1 -21 -9 -7 -8 -16 -12 -21 -9 -5 3 -9 1
-9 -3 0 -5 -10 -9 -21 -10 -12 -1 -29 -9 -38 -17 -10 -9 -25 -16 -34 -16 -9 0
-17 -5 -17 -12 0 -6 -3 -9 -6 -5 -4 3 -19 0 -35 -9 -16 -8 -32 -14 -35 -13 -4
0 -10 -5 -15 -13 -4 -7 -14 -13 -21 -14 -25 -2 -58 -16 -58 -25 0 -5 -3 -8 -7
-7 -10 3 -107 -45 -111 -55 -2 -4 -8 -5 -13 -1 -5 3 -9 1 -9 -5 0 -5 -9 -8
-20 -6 -11 2 -18 0 -15 -4 4 -8 -48 -35 -70 -36 -5 -1 -9 -7 -7 -14 2 -9 -4
-10 -19 -6 -12 4 -19 3 -16 -2 3 -5 -14 -18 -39 -28 -24 -10 -44 -22 -44 -27
0 -5 -4 -7 -9 -3 -5 3 -12 1 -16 -5 -4 -6 -10 -8 -15 -5 -4 3 -11 -2 -14 -11
-3 -8 -10 -12 -16 -9 -5 3 -10 1 -10 -4 0 -6 -5 -11 -10 -11 -6 0 -28 -11 -50
-25 -22 -14 -40 -22 -40 -18 0 5 -7 -1 -16 -12 -8 -11 -17 -19 -19 -17 -13 6
-25 1 -19 -10 4 -7 3 -8 -4 -4 -6 4 -20 -2 -32 -14 -12 -12 -20 -15 -20 -7 0
7 -5 5 -10 -5 -6 -9 -24 -19 -40 -23 -17 -4 -28 -10 -25 -15 3 -5 -11 -14 -30
-21 -19 -7 -35 -16 -35 -19 0 -3 -17 -14 -37 -25 -21 -11 -40 -22 -43 -25 -3
-4 -22 -14 -42 -23 -21 -10 -41 -25 -46 -33 -5 -9 -12 -15 -15 -15 -18 3 -25
-1 -47 -21 -14 -13 -27 -23 -30 -23 -3 0 -4 -3 -3 -7 2 -5 0 -7 -5 -6 -12 2
-45 -14 -78 -39 -17 -13 -34 -23 -37 -23 -7 0 -36 -23 -63 -48 -7 -7 -16 -12
-20 -11 -7 2 -39 -19 -60 -39 -8 -7 -14 -11 -14 -7 0 4 -6 0 -14 -7 -7 -7 -24
-20 -36 -28 -12 -8 -28 -20 -35 -27 -7 -7 -15 -9 -19 -6 -3 4 -6 2 -6 -4 0 -5
-15 -18 -34 -28 -19 -11 -33 -23 -30 -27 3 -4 -2 -8 -11 -8 -18 0 -47 -25 -39
-33 3 -3 -5 -3 -18 0 -12 3 -20 2 -16 -2 5 -5 -9 -20 -30 -34 -46 -31 -57 -40
-89 -69 -13 -12 -27 -21 -31 -18 -10 6 -32 -21 -24 -30 4 -4 2 -4 -5 0 -6 3
-19 -4 -27 -16 -9 -12 -16 -19 -16 -14 0 5 -6 3 -13 -3 -8 -6 -18 -7 -23 -3
-4 4 -2 -1 6 -11 7 -10 9 -17 4 -16 -18 6 -54 -13 -54 -27 0 -8 -4 -12 -10 -9
-5 3 -10 1 -10 -6 0 -7 -3 -10 -6 -6 -3 3 -16 -5 -29 -19 -12 -13 -27 -24 -33
-24 -6 0 -16 -9 -22 -21 -7 -11 -14 -18 -17 -15 -3 2 -16 -7 -29 -21 -13 -14
-24 -23 -24 -20 0 3 -19 -12 -42 -33 -24 -22 -46 -40 -49 -40 -11 0 -64 -54
-62 -62 2 -4 -4 -8 -12 -8 -20 0 -75 -56 -67 -66 4 -5 -1 -2 -11 6 -10 7 -17
9 -15 4 3 -11 -61 -76 -99 -101 -13 -9 -20 -20 -16 -26 3 -6 1 -7 -5 -3 -6 3
-16 -3 -22 -15 -7 -11 -14 -18 -17 -16 -2 3 -18 -9 -35 -26 -17 -18 -34 -31
-39 -29 -5 1 -9 -3 -9 -9 0 -6 -7 -17 -15 -25 -8 -9 -15 -13 -15 -10 0 3 -16
-10 -36 -29 -21 -20 -32 -40 -28 -46 4 -8 3 -9 -5 -5 -7 5 -31 -12 -61 -43
-28 -29 -50 -50 -50 -47 0 2 -16 -12 -35 -31 -19 -19 -35 -39 -35 -44 0 -5 -7
-9 -16 -9 -8 0 -12 -4 -9 -10 3 -5 2 -10 -3 -10 -11 0 -91 -78 -86 -83 2 -2
-7 -10 -21 -17 -14 -7 -25 -19 -25 -27 0 -7 -8 -13 -17 -13 -9 0 -14 -3 -10
-6 7 -8 -61 -74 -77 -74 -6 0 -4 -5 4 -10 11 -7 12 -10 2 -10 -8 0 -30 -19
-50 -41 -20 -23 -56 -61 -80 -86 -23 -24 -42 -48 -42 -53 0 -5 -9 -12 -21 -15
-11 -4 -18 -9 -15 -12 3 -3 -6 -16 -19 -29 -14 -13 -25 -27 -25 -31 -1 -4 -14
-19 -30 -33 -17 -13 -30 -30 -30 -38 0 -7 -4 -11 -9 -7 -5 3 -12 -3 -16 -14
-3 -11 -12 -22 -20 -25 -8 -3 -15 -12 -15 -20 0 -8 -9 -17 -19 -21 -10 -3 -22
-17 -25 -31 -4 -14 -11 -22 -16 -19 -6 3 -10 2 -10 -3 0 -8 -46 -66 -83 -104
-9 -10 -15 -18 -12 -18 3 0 -8 -13 -24 -29 -16 -16 -27 -32 -24 -35 4 -3 -1
-6 -11 -6 -9 0 -15 -4 -12 -8 3 -5 -12 -27 -33 -50 -22 -24 -34 -43 -27 -46 6
-2 3 -5 -6 -5 -10 -1 -18 -8 -18 -16 0 -8 -4 -15 -10 -15 -5 0 -10 -7 -10 -16
0 -8 -4 -12 -10 -9 -5 3 -10 1 -10 -5 0 -11 -9 -24 -46 -63 l-20 -22 32 -33
c17 -17 37 -32 43 -32 7 0 10 -3 8 -7 -2 -5 4 -16 15 -25 10 -10 18 -15 18
-10 0 4 9 -6 19 -21 10 -16 22 -28 27 -27 4 1 11 -7 15 -17 4 -10 8 -14 8 -10
1 4 32 -24 71 -63 38 -40 74 -69 80 -65 6 3 7 0 4 -9 -3 -9 -2 -16 4 -16 5 0
32 -22 60 -50 27 -27 52 -46 56 -43 3 4 6 0 6 -8 0 -16 34 -49 50 -49 6 0 10
-7 10 -17 0 -9 2 -14 5 -11 3 3 42 -31 87 -76 45 -45 86 -80 90 -78 4 1 8 -2
8 -7 0 -14 57 -71 64 -64 3 3 6 -1 6 -11 0 -9 4 -14 10 -11 5 3 10 1 10 -5 0
-6 5 -8 10 -5 6 4 9 2 8 -3 -4 -11 98 -112 113 -112 5 0 7 -4 4 -10 -3 -5 -2
-10 3 -10 6 0 37 -27 70 -60 33 -33 65 -60 71 -60 7 0 10 -4 7 -8 -3 -5 6 -19
19 -30 14 -12 25 -19 26 -14 0 4 5 -4 10 -17 6 -15 14 -21 25 -17 8 3 12 2 9
-4 -3 -5 2 -15 10 -22 41 -34 75 -70 75 -79 0 -6 4 -8 8 -5 5 3 37 -24 71 -59
34 -36 64 -65 66 -65 2 0 26 -22 53 -49 28 -28 53 -47 56 -44 3 4 6 1 6 -6 0
-16 25 -41 40 -41 6 0 9 -4 5 -9 -3 -5 4 -12 15 -16 11 -3 20 -14 20 -22 0 -9
2 -14 6 -11 3 3 44 -32 91 -78 47 -46 90 -84 95 -84 5 0 6 -4 3 -10 -3 -5 1
-10 9 -10 9 0 16 -7 16 -16 0 -10 5 -14 16 -10 8 3 13 2 11 -2 -5 -9 99 -112
107 -105 3 4 6 1 6 -6 0 -7 7 -19 15 -27 8 -9 15 -13 15 -11 0 3 40 -34 90
-83 49 -48 92 -85 95 -82 3 3 5 -2 5 -11 0 -8 9 -19 21 -22 11 -4 18 -9 15
-12 -5 -6 18 -33 29 -33 3 0 28 -22 54 -50 26 -27 51 -47 54 -43 4 3 7 1 7 -6
0 -16 26 -42 34 -34 3 4 6 -1 6 -11 0 -9 5 -14 10 -11 6 3 10 -2 10 -11 0 -10
2 -15 5 -12 4 3 32 -20 65 -52 32 -32 61 -56 64 -53 3 4 6 0 6 -8 0 -16 34
-49 51 -49 5 0 7 -5 3 -12 -5 -8 -2 -9 10 -5 9 4 15 3 12 -1 -2 -4 2 -16 10
-27 8 -10 14 -15 14 -11 0 4 29 -22 65 -58 36 -36 71 -66 77 -66 6 0 9 -3 5
-6 -6 -6 16 -34 27 -34 4 0 26 -21 50 -46 28 -29 49 -43 57 -38 8 5 10 3 4 -5
-9 -16 31 -55 48 -45 7 5 5 0 -3 -11 -9 -11 -10 -16 -2 -11 7 4 15 1 18 -9 4
-9 13 -14 20 -11 8 3 13 2 11 -2 -3 -11 151 -161 158 -154 3 3 5 -1 5 -9 1 -8
21 -30 45 -48 24 -19 42 -39 39 -43 -3 -4 4 -8 15 -8 12 0 20 -6 19 -12 -2 -7
3 -12 10 -10 6 1 11 -3 10 -10 -2 -6 7 -17 20 -23 13 -7 24 -16 25 -21 1 -5 5
-8 10 -6 4 1 7 -3 7 -8 0 -6 14 -24 30 -40 17 -16 30 -27 30 -24 0 3 36 -31
80 -75 44 -45 85 -81 90 -81 6 0 10 -7 10 -15 0 -8 5 -15 10 -15 6 0 21 -11
34 -25 13 -13 26 -21 30 -17 4 4 6 2 4 -4 -1 -6 14 -27 34 -47 21 -20 38 -33
39 -29 0 4 4 -3 9 -15 5 -13 15 -23 23 -23 7 0 20 -11 27 -25 7 -14 17 -25 22
-25 4 0 40 -32 78 -71 39 -39 70 -68 70 -64 0 3 6 0 14 -7 8 -7 12 -16 10 -20
-2 -4 4 -9 14 -12 10 -4 25 -18 32 -31 7 -14 17 -25 22 -25 14 0 48 -34 48
-49 0 -8 3 -11 6 -8 4 3 20 -8 35 -24 16 -17 29 -29 29 -26 0 3 16 -11 35 -30
19 -19 35 -40 35 -46 0 -6 2 -8 5 -5 3 2 43 -32 89 -76 190 -184 255 -244 260
-238 6 5 10 -14 7 -30 0 -5 8 -8 19 -8 11 0 20 -7 20 -15 0 -8 4 -15 10 -15 5
0 26 -17 47 -37 21 -21 42 -37 48 -35 5 2 7 0 2 -4 -9 -9 22 -44 40 -44 7 0
12 -4 11 -9 -2 -5 1 -9 7 -9 5 0 12 -8 15 -17 3 -9 10 -17 15 -18 15 -1 34
-21 29 -29 -2 -4 5 -9 16 -13 11 -3 20 -14 20 -22 0 -9 3 -14 6 -10 3 3 40
-28 81 -69 42 -41 80 -74 85 -74 5 0 6 -4 3 -10 -3 -5 0 -7 7 -5 13 5 92 162
89 178 0 4 3 7 9 7 5 0 10 7 10 15 0 8 5 15 12 15 6 0 9 3 5 6 -3 3 8 28 24
55 16 28 29 54 29 59 0 6 5 10 10 10 6 0 10 5 10 11 0 6 14 30 30 54 17 24 30
49 30 55 0 6 7 13 15 16 8 4 13 10 10 14 -2 4 4 15 15 25 11 10 20 23 20 29 0
7 9 18 20 26 14 10 16 16 7 22 -8 5 -6 8 6 8 10 0 15 5 12 10 -3 6 1 13 10 16
9 4 14 13 11 20 -3 8 -1 13 3 11 5 -1 10 3 11 8 1 6 13 20 26 31 12 12 20 25
17 28 -4 3 -1 6 5 6 6 0 14 9 17 20 4 11 9 18 13 16 10 -5 32 20 25 28 -4 3
-1 6 6 6 7 0 9 5 6 10 -3 6 -1 10 4 10 6 0 11 7 11 16 0 8 5 12 11 9 6 -4 13
2 16 14 3 12 12 21 20 21 8 0 12 4 8 9 -3 6 3 15 14 20 11 6 22 20 26 30 3 11
15 23 25 26 11 3 19 10 17 14 -1 5 30 40 70 79 39 39 69 73 66 76 -4 3 1 6 11
6 9 0 14 5 11 10 -3 6 -2 10 2 10 5 0 35 24 66 54 31 29 57 50 57 47 1 -3 7 5
15 19 7 14 16 24 19 23 15 -7 26 -2 26 12 0 8 4 15 10 15 5 0 23 13 39 29 16
16 32 26 35 23 3 -3 6 2 6 12 0 9 4 15 10 11 5 -3 21 8 36 25 15 16 36 30 47
30 11 0 17 3 13 7 -3 4 15 21 42 38 27 17 57 38 66 48 10 9 22 15 27 12 5 -4
9 1 9 9 0 9 5 16 11 16 6 0 31 14 56 32 26 17 52 31 59 31 7 0 11 4 8 9 -5 7
3 10 22 7 3 0 14 9 23 20 10 11 21 18 25 14 3 -3 6 -1 6 6 0 7 5 9 10 6 6 -3
10 -1 10 4 0 6 7 11 15 11 8 0 15 5 15 11 0 6 6 9 12 7 7 -3 18 0 25 6 25 22
38 32 43 33 20 2 50 16 50 24 0 6 5 7 10 4 6 -3 13 0 16 9 3 8 11 13 19 10 7
-3 19 2 28 10 8 8 17 12 21 9 3 -3 8 1 12 10 3 9 12 13 20 10 8 -3 21 1 30 8
9 7 23 14 32 15 8 2 19 9 23 16 5 7 9 10 9 5 0 -4 12 1 27 10 16 11 24 13 19
5 -7 -11 -4 -11 13 0 12 7 21 16 21 21 0 4 4 6 8 3 4 -2 26 4 49 14 23 10 44
16 47 12 3 -3 6 0 6 7 0 7 4 10 9 7 12 -8 42 4 36 14 -3 5 4 6 15 3 12 -3 22
0 25 9 3 7 18 13 33 12 15 0 29 3 32 7 3 4 21 11 40 14 19 3 37 9 40 13 5 7
27 12 63 15 9 1 17 5 17 10 0 5 7 7 15 4 8 -4 17 -2 21 4 3 6 12 8 20 5 7 -3
19 0 26 7 7 7 27 13 43 15 17 1 41 4 55 5 14 1 28 5 31 10 3 4 23 9 45 11 21
3 39 5 39 6 0 2 36 9 81 15 22 3 53 9 70 13 16 4 44 7 62 7 17 0 32 2 32 5 0
5 40 9 125 13 22 1 46 6 54 11 10 7 12 6 6 -3 -5 -10 -3 -11 11 -4 11 6 43 9
72 8 28 -1 52 1 52 4 0 3 36 6 80 6 44 0 80 -3 80 -7 0 -4 11 -3 24 2 17 6 26
5 30 -3 3 -9 5 -9 5 0 1 7 7 10 14 8 6 -2 62 -7 122 -9 61 -2 110 -5 110 -6 0
-1 12 -3 28 -5 18 -2 25 0 21 7 -5 7 -2 8 7 2 15 -9 31 -12 89 -19 19 -2 35
-4 35 -5 0 -1 20 -3 45 -5 25 -2 47 -4 50 -5 3 -1 9 -2 14 -1 5 1 13 -4 17
-11 7 -11 9 -11 9 0 0 7 5 10 10 7 6 -4 23 -8 38 -11 45 -6 57 -9 67 -16 6 -4
17 -3 25 2 8 5 19 3 27 -6 8 -8 19 -12 24 -9 5 4 14 3 21 -1 7 -4 21 -9 33
-11 25 -3 59 -11 63 -13 1 -2 5 -3 10 -4 79 -19 116 -28 130 -28 6 -1 12 -8
12 -17 0 -14 2 -14 10 -1 7 11 10 11 10 2 0 -7 5 -10 10 -7 6 4 18 1 27 -7 14
-11 16 -11 8 2 -6 12 -5 13 6 3 7 -7 21 -13 31 -13 10 0 18 -4 18 -9 0 -5 12
-8 26 -6 14 1 28 -3 30 -10 3 -7 13 -12 22 -10 9 1 20 -2 23 -7 3 -5 12 -10
20 -11 8 -2 20 -6 27 -10 6 -5 17 -5 22 -2 6 3 10 1 10 -5 0 -6 4 -8 10 -5 5
3 10 1 10 -5 0 -7 7 -9 15 -6 9 3 18 -1 21 -9 4 -8 10 -12 15 -10 5 3 21 -2
36 -12 15 -10 28 -17 30 -16 5 4 38 -10 44 -19 3 -5 16 -10 27 -11 12 -1 22
-5 22 -9 0 -4 6 -8 14 -8 7 0 34 -11 59 -25 48 -28 91 -40 82 -24 -4 5 2 9 11
9 10 0 15 3 12 6 -4 3 12 22 35 42 23 20 79 74 124 118 46 45 83 79 83 77 0
-2 7 2 15 11 8 8 15 20 15 27 0 7 3 10 6 6 11 -10 47 31 39 44 -5 8 -4 10 4 5
7 -5 31 13 61 43 28 28 50 49 50 47 0 -2 36 32 79 75 44 44 85 79 92 79 7 0
10 3 6 6 -6 7 16 34 28 34 3 0 53 47 110 104 57 57 106 101 109 98 3 -3 6 3 6
13 0 10 3 16 6 13 7 -8 51 35 47 45 -2 4 1 7 7 7 6 0 29 18 51 40 22 22 44 40
50 40 6 0 7 5 4 10 -3 6 -2 10 2 10 14 0 72 57 66 64 -4 3 -2 6 4 6 19 0 55
39 47 51 -5 8 -3 9 5 5 8 -5 28 8 52 33 22 23 45 41 50 41 6 0 8 3 6 8 -4 7
25 39 40 45 17 5 92 85 86 91 -4 3 4 6 16 6 12 0 19 4 16 10 -3 6 1 10 10 10
9 0 14 4 10 9 -3 6 4 15 15 21 11 6 17 16 14 22 -4 7 -3 8 4 4 15 -9 65 41 56
56 -4 6 -3 8 4 4 6 -3 49 31 96 77 47 46 86 82 86 80 0 -2 6 2 14 9 8 7 12 16
9 21 -2 4 0 7 5 7 5 0 34 23 63 51 30 29 49 49 42 45 -6 -3 -13 -2 -15 3 -1 5
-34 30 -73 55 -38 25 -74 49 -80 53 -5 5 -22 14 -37 22 -16 8 -28 18 -28 23 0
4 -8 8 -18 8 -10 0 -24 9 -32 19 -7 11 -17 18 -22 15 -4 -3 -11 2 -14 10 -3 9
-11 13 -17 9 -5 -3 -15 0 -21 8 -15 19 -76 52 -76 42 0 -4 -5 0 -11 10 -6 9
-14 15 -19 12 -4 -3 -11 2 -14 11 -3 8 -10 13 -15 9 -6 -3 -14 2 -19 11 -5 9
-12 16 -15 16 -17 0 -47 11 -47 17 0 4 -16 13 -35 21 -19 8 -35 17 -35 22 0 4
-7 5 -15 2 -10 -4 -15 0 -15 11 0 11 -5 15 -14 12 -8 -3 -24 3 -36 13 -12 10
-28 16 -36 13 -8 -3 -14 1 -14 11 0 9 -6 13 -15 10 -9 -4 -18 1 -21 11 -4 9
-13 14 -20 11 -8 -3 -14 -1 -14 4 0 6 -9 10 -20 10 -11 0 -20 5 -20 10 0 6 -9
10 -20 10 -11 0 -20 5 -20 11 0 5 -5 7 -10 4 -6 -3 -13 1 -16 10 -6 13 -8 14
-15 3 -6 -8 -9 -9 -9 -1 0 6 -13 14 -30 18 -16 4 -30 11 -30 16 0 5 -3 8 -7 7
-5 -1 -21 5 -38 12 -16 7 -32 14 -35 14 -3 1 -11 5 -17 9 -7 5 -18 5 -25 1 -7
-4 -8 -3 -4 4 4 7 2 12 -3 12 -18 0 -20 0 -48 15 -14 8 -31 11 -36 8 -6 -3 -7
-1 -3 5 6 11 -5 15 -30 11 -4 0 -10 4 -13 10 -4 6 -19 12 -34 13 -15 1 -27 5
-27 9 0 7 -36 21 -60 22 -8 1 -21 7 -28 14 -8 7 -18 11 -23 8 -5 -4 -9 -1 -9
5 0 6 -6 10 -12 8 -7 -1 -22 3 -33 9 -11 6 -28 9 -37 8 -10 -2 -18 0 -18 5 0
6 -74 32 -100 35 -3 0 -14 6 -25 12 -11 6 -28 9 -37 8 -10 -2 -18 1 -18 6 0 5
-11 9 -24 9 -14 0 -28 5 -32 11 -3 6 -15 9 -25 6 -11 -3 -25 0 -32 7 -6 6 -19
11 -27 11 -8 -1 -22 4 -30 10 -8 6 -29 11 -47 11 -17 -1 -29 2 -26 7 2 4 -9 7
-24 7 -16 0 -34 5 -41 12 -7 7 -12 9 -12 5 0 -4 -10 -3 -21 4 -15 7 -19 8 -15
0 5 -7 1 -9 -8 -5 -9 3 -16 10 -16 14 0 4 -10 6 -22 6 -13 -1 -30 1 -39 5 -9
5 -34 10 -55 12 -21 3 -40 9 -41 14 -2 5 -18 8 -35 7 -18 -1 -37 1 -43 4 -13
8 -31 11 -72 14 -18 0 -33 4 -33 8 0 6 -55 13 -97 13 -13 -1 -23 3 -23 7 0 5
-17 9 -37 9 -45 0 -64 4 -80 14 -8 5 -13 3 -13 -5 0 -9 -3 -9 -8 -2 -4 6 -19
10 -34 10 -16 -1 -28 3 -28 9 0 5 -5 3 -10 -5 -6 -9 -10 -11 -10 -3 0 7 -7 10
-17 6 -11 -5 -14 -3 -8 6 6 10 3 11 -14 2 -11 -7 -21 -8 -21 -3 0 7 -43 11
-123 13 -9 0 -15 4 -12 10 4 5 -3 5 -18 0 -14 -6 -27 -7 -31 -4 -3 3 -29 7
-58 8 -29 2 -53 4 -53 5 0 1 -15 3 -32 4 -22 3 -31 0 -26 -8 4 -7 2 -7 -7 1
-7 6 -19 9 -26 6 -8 -3 -14 0 -14 7 0 10 -3 10 -15 0 -8 -6 -18 -9 -23 -6 -5
3 -70 6 -143 8 -74 1 -142 6 -153 11 -12 6 -16 5 -12 -1 3 -6 -40 -9 -115 -8
-67 0 -122 -1 -124 -4 -2 -3 -51 -5 -109 -5 -58 0 -106 -3 -106 -6 0 -3 -12
-5 -26 -3 -15 1 -38 -2 -51 -7 -16 -6 -22 -5 -18 1 4 7 -3 7 -19 0 -18 -7 -26
-6 -26 1 0 8 -4 8 -13 0 -8 -6 -23 -9 -35 -6 -12 2 -22 1 -22 -3 0 -4 -21 -8
-48 -9 -26 -1 -63 -4 -82 -7 -35 -6 -130 -17 -162 -19 -10 -1 -18 -4 -18 -7 0
-3 -17 -5 -37 -5 -21 1 -42 -2 -48 -6 -18 -12 -65 -16 -65 -6 0 6 -7 2 -15 -9
-10 -13 -14 -14 -15 -5 0 10 -3 11 -13 3 -7 -6 -29 -12 -48 -13 -19 -2 -38 -5
-44 -8 -5 -3 -22 -6 -37 -7 -15 -1 -35 -7 -45 -15 -15 -12 -16 -12 -8 1 8 13
7 13 -8 1 -9 -7 -17 -10 -17 -7 0 4 -9 2 -20 -4 -15 -8 -20 -8 -20 2 -1 8 -4
7 -10 -3 -6 -10 -20 -15 -35 -14 -14 2 -25 -1 -25 -5 0 -5 -9 -7 -20 -5 -11 2
-22 -1 -25 -6 -4 -5 -10 -7 -15 -4 -5 3 -18 1 -29 -5 -11 -5 -31 -11 -45 -12
-15 -1 -26 -6 -26 -10 0 -4 -9 -5 -20 -3 -11 2 -20 1 -20 -3 0 -7 -20 -12 -62
-15 -10 -1 -18 -5 -18 -9 0 -4 -11 -8 -25 -8 -14 0 -25 -4 -25 -8 0 -5 -7 -9
-15 -9 -18 0 -94 -22 -118 -34 -10 -5 -22 -7 -27 -4 -6 4 -10 1 -10 -5 0 -6
-4 -9 -9 -5 -5 3 -13 0 -16 -6 -4 -5 -13 -8 -21 -5 -8 3 -14 1 -14 -5 0 -6 -4
-8 -9 -4 -5 3 -13 0 -16 -6 -4 -5 -13 -8 -21 -5 -8 3 -14 1 -14 -5 0 -6 -4 -8
-9 -4 -5 3 -12 1 -16 -5 -4 -6 -11 -8 -16 -5 -5 4 -9 1 -9 -6 0 -7 -3 -9 -6
-6 -4 3 -16 1 -28 -5 -11 -7 -25 -13 -31 -13 -14 -2 -65 -22 -98 -40 -15 -8
-25 -10 -21 -4 7 13 -38 -12 -48 -26 -4 -5 -8 -7 -8 -2 0 4 -13 1 -30 -8 -16
-8 -33 -16 -37 -16 -23 -3 -53 -20 -53 -29 0 -6 -4 -9 -9 -6 -5 3 -38 -7 -74
-23 -36 -16 -69 -26 -73 -23 -4 4 -4 1 0 -5 6 -12 -11 -18 -36 -14 -5 0 -8 -4
-8 -9 0 -6 -7 -10 -15 -10 -8 0 -15 -5 -15 -11 0 -6 -9 -9 -20 -6 -13 3 -20 0
-20 -9 0 -8 -9 -14 -20 -14 -11 0 -20 -4 -20 -10 0 -5 -7 -7 -15 -4 -9 4 -15
0 -15 -10 0 -9 -6 -13 -14 -10 -7 3 -20 -2 -29 -10 -8 -8 -17 -12 -21 -9 -3 4
-6 1 -6 -6 0 -7 -4 -10 -9 -7 -4 3 -17 -2 -27 -10 -10 -9 -13 -12 -5 -8 9 4
12 3 8 -4 -4 -5 -16 -8 -27 -5 -12 3 -20 0 -20 -8 0 -7 -3 -9 -6 -6 -4 3 -18
-3 -32 -13 -13 -11 -29 -20 -34 -20 -6 0 -21 -9 -35 -20 -14 -11 -29 -17 -34
-14 -5 3 -9 0 -9 -6 0 -10 -48 -35 -62 -32 -5 1 -8 -5 -8 -14 0 -8 -4 -13 -9
-9 -5 3 -17 -2 -25 -11 -9 -8 -16 -12 -16 -7 0 4 -7 -1 -15 -11 -8 -11 -15
-16 -15 -12 0 4 -7 0 -16 -8 -8 -9 -22 -16 -30 -16 -8 0 -14 -5 -14 -11 0 -5
-4 -7 -10 -4 -5 3 -10 2 -10 -4 0 -6 -16 -18 -35 -27 -19 -9 -35 -21 -35 -26
0 -5 -5 -8 -11 -6 -6 2 -25 -9 -42 -24 -16 -16 -32 -27 -34 -24 -2 2 -18 -9
-35 -24 -37 -34 -67 -44 -75 -24 -3 8 -9 11 -14 8 -5 -3 -9 2 -9 10 0 9 -4 16
-10 16 -5 0 -29 20 -52 44 -23 25 -46 42 -52 39 -6 -3 -8 -3 -4 2 11 11 -80
98 -94 89 -6 -4 -8 -3 -5 3 4 6 -8 25 -27 41 -19 17 -32 33 -29 36 4 3 1 6 -4
6 -6 0 -32 20 -57 45 -26 25 -51 45 -56 45 -6 0 -9 6 -7 13 1 6 -3 11 -9 10
-6 -1 -17 9 -24 22 -7 14 -17 25 -22 25 -4 0 -28 21 -52 46 -28 28 -50 43 -57
38 -8 -4 -9 -3 -5 5 6 10 -65 91 -81 91 -10 0 -32 28 -26 34 4 3 1 6 -5 6 -6
0 -49 36 -94 80 -54 53 -88 78 -98 75 -12 -5 -12 -3 -3 6 9 9 8 15 -3 26 -7 8
-18 11 -24 8 -6 -4 -9 -2 -8 2 4 12 -58 74 -66 66 -6 -6 -10 12 -7 30 1 5 -3
6 -8 3 -5 -3 -11 1 -15 9 -3 8 -13 15 -21 15 -9 0 -13 5 -10 10 3 6 -1 10 -9
10 -9 0 -16 7 -16 15 0 8 -4 15 -9 15 -5 0 -48 38 -95 84 -47 46 -88 81 -91
78 -3 -3 -5 2 -5 11 0 11 -8 17 -22 17 -19 0 -20 2 -8 10 8 5 10 10 4 10 -6 0
-29 18 -50 40 -22 22 -45 40 -53 40 -10 0 -5 10 14 30 15 16 31 27 35 25 5 -3
10 2 14 10 3 8 11 15 17 15 7 0 26 15 42 33 17 17 26 25 22 17 -8 -13 -7 -13
11 0 10 8 24 20 30 25 6 6 23 19 38 30 16 11 34 26 42 33 8 7 14 10 14 6 0 -4
11 5 24 19 13 14 27 23 31 19 3 -4 11 1 16 11 6 9 15 17 21 17 6 0 17 8 25 18
10 11 12 12 8 2 -3 -8 2 -5 11 8 9 12 22 22 30 22 7 0 17 6 21 14 4 8 11 15
15 16 14 1 53 19 45 19 -4 1 -2 7 5 15 9 10 15 11 20 2 5 -7 8 -5 8 6 0 10 3
17 8 16 4 -1 25 8 47 20 22 11 36 21 30 22 -5 0 9 10 33 21 23 11 42 25 42 31
0 6 3 8 6 5 4 -4 19 2 34 13 16 11 33 20 39 20 6 0 11 5 11 10 0 6 7 10 15 10
8 0 15 5 15 10 0 6 6 10 14 10 8 0 21 6 28 13 7 6 31 21 53 32 22 11 43 24 47
30 4 5 8 6 8 2 0 -5 12 1 26 12 15 12 33 21 40 21 8 0 14 5 14 10 0 6 6 10 13
10 7 0 29 11 50 25 20 14 37 22 37 18 0 -4 7 1 15 11 8 11 15 17 15 13 0 -4
10 -2 23 5 12 7 25 12 29 13 4 0 16 8 27 17 11 9 22 14 25 11 3 -4 6 -1 6 6 0
7 4 10 9 6 6 -3 14 3 20 12 7 13 10 14 11 4 0 -11 5 -10 20 4 11 10 20 14 20
9 0 -5 4 -4 8 2 8 12 84 49 95 46 4 -1 7 3 7 10 0 6 3 8 6 5 4 -4 19 2 34 13
15 11 30 17 34 13 3 -3 6 -1 6 6 0 7 5 9 10 6 6 -3 10 -2 10 3 0 5 6 9 13 9 6
0 44 15 82 34 39 18 77 34 85 35 8 2 16 7 18 13 2 5 10 7 18 4 8 -3 14 0 14 7
0 7 6 10 14 7 8 -3 16 -2 18 4 2 5 17 12 33 15 17 3 32 9 33 15 2 5 13 9 23 9
13 0 18 4 13 12 -4 7 -3 8 4 4 6 -4 25 0 42 9 17 9 35 13 40 10 6 -3 10 -1 10
4 0 6 12 11 26 11 14 0 23 4 20 9 -5 8 37 22 74 26 8 0 14 6 13 12 -1 5 9 9
22 7 14 -1 25 1 25 5 0 6 114 45 135 46 6 0 13 4 16 8 3 4 19 10 34 13 16 3
34 9 40 13 5 4 17 7 25 6 8 0 21 5 28 12 8 7 24 11 38 9 14 -3 23 0 21 6 -1 7
9 12 23 12 14 0 28 3 31 8 3 4 17 9 32 10 15 1 27 6 27 10 0 4 9 5 20 3 11 -2
20 0 20 4 0 8 67 26 83 23 4 -1 7 2 7 6 0 4 8 8 18 9 9 1 31 5 47 8 17 3 36 7
43 7 6 1 12 6 12 11 0 5 11 7 25 5 14 -3 25 -1 25 4 0 6 7 8 15 4 8 -3 15 -2
15 2 0 4 14 9 32 10 18 2 35 7 38 12 3 5 16 8 28 5 12 -2 22 -1 22 3 0 7 25
12 68 15 6 0 12 3 12 7 0 3 8 6 18 7 9 1 33 4 52 8 19 4 45 8 58 9 12 0 22 5
22 10 0 4 7 6 15 2 8 -3 15 -2 15 2 0 4 12 8 28 9 15 0 38 4 52 7 14 4 37 7
53 7 15 0 27 4 27 8 0 5 11 7 25 6 14 -2 25 0 25 4 0 4 10 7 23 6 12 -1 28 3
36 9 12 9 13 8 7 -2 -7 -11 -4 -12 10 -4 11 6 37 11 59 13 22 1 46 8 54 13 12
9 13 8 6 -4 -7 -12 -6 -13 6 -4 8 6 29 11 47 10 17 0 32 3 32 8 0 4 7 6 15 2
8 -3 15 0 15 7 0 8 3 7 9 -2 7 -11 13 -12 23 -4 7 6 30 10 51 9 20 0 37 2 37
5 0 4 13 5 30 4 16 -1 28 1 25 5 -2 3 17 7 43 7 26 0 74 4 107 8 93 11 115 12
115 2 0 -4 7 -1 16 8 12 12 19 13 30 4 8 -6 14 -8 14 -3 0 5 31 9 70 9 38 0
70 4 70 9 0 5 6 3 14 -3 10 -9 16 -9 21 -1 5 8 11 8 21 -1 8 -6 14 -7 14 -2 0
6 23 10 50 9 28 -1 50 1 50 4 0 8 584 5 598 -3 7 -5 12 -3 12 5 0 9 3 9 10 -2
9 -13 10 -13 10 0 0 12 2 13 9 1 7 -11 9 -11 14 0 3 8 6 9 6 4 1 -6 18 -10 38
-9 21 1 41 -3 45 -9 5 -8 8 -8 8 -1 0 12 28 12 47 1 6 -4 15 -3 18 3 5 8 11 7
21 -1 11 -9 14 -9 14 0 0 7 5 9 13 4 6 -4 28 -9 47 -10 19 -1 76 -5 125 -8 50
-4 98 -6 108 -6 9 0 17 -3 17 -7 0 -4 24 -7 53 -6 28 0 59 -3 68 -7 9 -5 21
-3 27 3 9 9 12 9 12 -2 0 -7 3 -10 7 -7 3 4 12 2 20 -4 10 -9 13 -8 13 1 0 9
4 9 13 2 6 -5 22 -8 35 -6 12 2 22 0 22 -5 0 -4 12 -7 27 -5 15 1 31 -3 35 -9
6 -9 8 -9 8 0 0 8 9 9 30 3 17 -5 30 -6 30 -3 0 3 8 -1 17 -8 15 -12 16 -12 8
1 -7 12 -6 13 6 4 8 -7 28 -13 44 -13 17 -1 42 -3 58 -4 15 0 27 -5 27 -10 0
-5 9 -7 20 -4 11 3 20 2 20 -2 0 -4 16 -6 35 -6 19 1 35 -1 35 -5 0 -5 35 -11
83 -13 9 -1 17 -4 17 -7 0 -5 9 -7 65 -11 14 -1 25 -5 25 -9 0 -4 14 -6 30 -5
17 1 30 -2 30 -6 0 -5 13 -7 30 -5 16 2 31 0 32 -5 3 -7 54 -20 86 -22 6 0 12
-4 12 -8 0 -4 8 -5 19 -2 10 3 22 0 25 -6 4 -5 13 -8 21 -4 8 3 15 1 15 -4 0
-5 14 -8 30 -7 17 1 30 -1 30 -5 0 -7 94 -31 123 -31 9 0 17 -4 17 -10 0 -5
15 -10 33 -10 19 0 37 -3 41 -7 3 -4 16 -8 28 -10 12 -2 28 -9 37 -16 12 -10
13 -9 6 3 -7 12 -6 13 6 4 15 -12 68 -28 82 -26 4 1 7 -2 7 -6 0 -5 6 -9 13
-10 6 0 23 -3 37 -7 14 -4 31 -7 38 -7 6 -1 12 -5 12 -10 0 -5 4 -7 9 -3 5 3
12 1 16 -5 4 -6 11 -7 17 -4 6 4 13 2 17 -5 4 -6 19 -12 34 -13 15 -1 27 -6
27 -11 0 -4 4 -6 8 -3 5 3 21 -2 37 -10 15 -8 30 -12 33 -9 3 2 11 -3 19 -13
8 -9 12 -11 8 -4 -3 6 -1 12 4 12 6 0 11 -4 11 -10 0 -5 9 -10 19 -10 11 0 23
-5 26 -11 4 -6 13 -8 21 -5 8 3 14 1 14 -5 0 -5 6 -9 13 -8 6 1 34 -8 61 -20
27 -12 56 -19 63 -17 8 3 11 1 8 -4 -3 -6 0 -10 8 -10 9 0 35 -10 59 -21 75
-38 86 -42 96 -35 5 3 13 -1 16 -10 3 -9 12 -14 18 -12 7 3 19 -2 27 -9 7 -8
20 -12 27 -9 8 3 14 -1 14 -8 0 -9 9 -13 24 -12 15 2 27 -3 31 -12 3 -8 8 -12
12 -9 3 4 12 2 20 -4 7 -6 13 -8 13 -5 0 4 7 0 16 -8 8 -9 24 -16 35 -16 10 0
19 -5 19 -11 0 -6 6 -9 14 -6 8 3 16 2 18 -3 2 -5 10 -10 18 -12 8 -2 17 -5
20 -8 15 -15 52 -30 60 -25 6 4 10 -1 10 -11 0 -11 6 -15 20 -11 11 3 20 2 20
-1 0 -11 61 -42 71 -36 5 3 9 -2 9 -10 0 -9 3 -15 8 -14 14 4 52 -13 52 -23 0
-6 4 -8 10 -4 8 5 46 -11 60 -25 3 -3 28 -16 55 -30 28 -14 52 -27 55 -31 5
-5 23 -13 45 -19 6 -2 16 -10 23 -19 11 -13 12 -13 7 -1 -4 10 -2 9 8 -2 8
-10 17 -15 20 -11 4 3 7 1 7 -6 0 -7 4 -10 9 -7 5 3 12 -2 15 -11 6 -15 8 -15
16 -3 8 12 10 12 10 -4 0 -11 3 -16 6 -13 4 4 19 -2 34 -13 16 -11 33 -20 39
-20 6 0 11 -4 11 -10 0 -5 7 -10 15 -10 8 0 15 -5 15 -11 0 -5 4 -8 9 -4 5 3
15 -1 23 -8 19 -18 148 -97 159 -97 5 0 9 -4 9 -10 0 -5 9 -10 21 -10 11 0 17
-4 14 -10 -3 -5 0 -10 8 -10 8 0 22 -9 32 -20 10 -11 24 -20 32 -20 7 0 13 -5
13 -11 0 -5 4 -8 9 -5 5 3 12 -1 15 -10 3 -8 10 -12 16 -9 5 3 10 1 10 -4 0
-6 7 -11 15 -11 9 0 18 -7 21 -15 4 -8 12 -15 20 -15 8 0 14 -5 14 -12 0 -6 3
-9 6 -5 4 3 12 1 20 -6 33 -29 44 -37 54 -37 5 0 10 -4 10 -10 0 -5 4 -10 10
-10 9 0 35 -19 66 -48 7 -7 17 -13 21 -13 4 0 20 -11 36 -25 15 -13 27 -22 27
-19 0 5 38 -25 66 -53 8 -7 18 -10 24 -7 6 4 9 1 8 -5 -2 -7 13 -21 31 -32 32
-18 36 -18 46 -4 7 9 15 13 18 9 4 -3 7 -2 7 4 0 5 9 20 20 33 11 13 20 20 20
17 0 -3 37 31 82 76 46 45 86 81 90 80 4 -2 10 6 13 17 4 11 11 18 16 15 5 -4
9 2 9 11 0 10 3 15 6 12 3 -4 24 12 46 35 23 23 46 40 52 39 6 -2 8 0 4 4 -5
4 1 14 12 21 11 8 18 19 15 24 -3 5 2 6 11 2 11 -4 15 -2 11 4 -3 5 5 16 18
23 13 7 22 17 19 22 -3 4 2 8 10 8 8 0 18 9 21 21 4 11 9 18 12 16 2 -3 38 28
78 68 40 40 76 71 79 68 3 -4 6 -2 6 3 0 6 7 19 16 30 8 10 13 13 9 6 -3 -7
42 35 101 93 58 58 110 105 115 105 5 0 9 7 9 15 0 8 3 14 8 13 11 -3 147 133
144 144 -1 5 2 7 6 4 12 -7 74 52 67 63 -2 5 3 8 13 7 9 0 16 5 14 12 -1 6 4
11 10 10 7 -2 12 3 10 11 -2 9 3 11 15 7 9 -4 14 -4 11 0 -4 3 20 32 54 63
107 99 128 120 128 131 0 6 4 9 9 5 6 -3 14 1 18 10 5 8 24 26 43 40 19 14 31
25 27 25 -4 0 2 9 13 20 11 11 22 20 25 20 3 0 47 42 99 93 52 50 104 99 115
107 12 8 21 20 21 28 0 7 5 10 10 7 6 -3 10 -1 10 5 0 6 4 9 8 6 4 -2 9 4 9
15 1 10 -3 19 -9 19 -6 0 -18 8 -27 18 -9 9 -25 22 -36 29 -11 6 -19 16 -17
23 1 6 -1 9 -6 6 -4 -3 -25 10 -47 29 -21 19 -42 32 -46 29 -5 -3 -9 1 -9 9 0
7 -11 20 -25 27 -14 7 -25 17 -25 22 0 4 -5 8 -11 8 -7 0 -19 8 -28 18 -9 11
-26 24 -39 31 -12 7 -20 17 -16 23 4 6 3 8 -3 5 -6 -4 -22 2 -35 13 -14 11
-28 16 -32 13 -3 -3 -6 0 -6 8 0 8 -18 25 -40 38 -21 13 -50 35 -64 48 -14 12
-32 23 -41 23 -9 0 -14 4 -11 8 3 5 -7 15 -22 23 -14 8 -34 21 -43 29 -26 23
-42 33 -116 81 -18 12 -33 26 -33 32 0 7 -4 7 -9 -2 -7 -11 -10 -9 -16 8 -3
12 -11 19 -16 16 -5 -4 -12 1 -15 9 -3 9 -10 13 -15 10 -5 -3 -9 0 -9 6 0 6
-4 8 -10 5 -5 -3 -10 -1 -10 4 0 6 -7 11 -15 11 -8 0 -15 7 -15 15 0 9 -6 12
-15 9 -8 -4 -15 -1 -15 5 0 6 -6 11 -13 11 -7 0 -19 9 -27 19 -7 11 -17 18
-21 15 -4 -2 -21 7 -37 21 -16 14 -35 25 -41 25 -6 0 -11 5 -11 10 0 6 -6 10
-12 10 -7 0 -31 14 -52 30 -21 16 -42 27 -46 25 -5 -3 -10 2 -14 10 -3 8 -12
15 -21 15 -8 0 -15 5 -15 10 0 6 -7 10 -15 10 -7 0 -18 6 -22 14 -4 8 -12 15
-18 15 -25 2 -45 13 -39 22 3 5 2 9 -3 8 -18 -3 -34 1 -29 9 2 4 -5 9 -17 9
-12 1 -23 7 -25 13 -2 5 -8 10 -13 10 -6 0 -20 9 -32 20 -12 11 -27 18 -34 16
-7 -3 -13 1 -13 8 0 8 -7 13 -16 12 -9 -1 -28 8 -42 21 -13 12 -28 20 -33 17
-5 -3 -9 0 -9 7 0 7 -3 10 -6 6 -4 -3 -13 1 -21 9 -9 8 -22 13 -30 10 -8 -3
-12 -2 -9 3 3 4 -16 19 -42 32 -26 13 -48 27 -50 32 -2 4 -10 7 -19 7 -8 0
-21 7 -30 15 -8 8 -19 13 -24 10 -5 -4 -9 -2 -9 4 0 5 -16 15 -35 22 -19 7
-35 17 -35 22 0 4 -4 6 -9 2 -5 -3 -13 0 -16 6 -4 5 -14 8 -22 5 -8 -3 -12 -2
-9 3 5 8 -15 21 -30 20 -4 0 -10 3 -13 8 -8 11 -84 47 -93 45 -5 -1 -8 3 -8 8
0 6 -9 10 -20 10 -11 0 -20 5 -20 10 0 6 -9 10 -19 10 -11 0 -23 5 -26 11 -4
6 -14 8 -22 5 -8 -3 -11 -1 -8 4 7 11 -35 31 -47 23 -5 -2 -8 0 -8 5 0 9 -37
25 -52 23 -5 -1 -8 4 -8 9 0 5 -3 9 -7 8 -5 -1 -34 10 -66 25 -32 15 -62 27
-67 27 -6 0 -10 4 -10 8 0 4 -10 9 -22 9 -13 1 -24 7 -26 13 -2 5 -9 10 -16
10 -12 0 -80 29 -118 50 -10 6 -25 10 -33 10 -8 0 -15 5 -15 12 0 6 -3 8 -7 5
-3 -4 -17 0 -31 9 -13 9 -22 12 -18 6 3 -6 -4 -5 -19 1 -14 7 -25 16 -25 20 0
5 -4 6 -9 2 -5 -3 -12 -1 -16 5 -4 6 -11 8 -16 5 -5 -4 -9 -1 -9 4 0 6 -3 10
-7 10 -5 -1 -11 0 -15 1 -5 1 -11 3 -15 5 -18 5 -49 17 -65 26 -10 5 -25 9
-33 9 -8 0 -15 4 -15 10 0 5 -6 7 -14 4 -8 -3 -17 0 -21 5 -3 6 -11 9 -16 6
-5 -4 -9 -1 -9 5 0 6 -4 8 -10 5 -5 -3 -10 0 -10 7 0 9 -3 9 -10 -2 -9 -13
-10 -13 -10 0 0 10 -10 17 -27 18 -15 1 -30 8 -34 14 -5 7 -11 9 -15 6 -4 -4
-16 -1 -28 7 -25 18 -40 19 -30 3 4 -7 -2 -5 -13 5 -11 9 -23 14 -26 10 -4 -3
-7 -1 -7 6 0 7 -4 10 -9 6 -5 -3 -13 0 -16 6 -4 5 -13 8 -21 5 -8 -3 -14 -1
-14 4 0 6 -11 10 -24 10 -14 0 -27 4 -30 9 -3 4 -20 12 -38 16 -18 4 -40 9
-48 12 -8 2 -21 5 -27 5 -7 1 -13 4 -13 8 0 4 -7 7 -15 8 -8 1 -22 3 -30 4 -8
1 -15 5 -15 10 0 4 -11 8 -25 8 -14 0 -25 4 -25 8 0 4 -9 9 -20 10 -11 1 -29
3 -40 4 -11 1 -20 6 -20 11 0 5 -7 7 -15 3 -8 -3 -15 -1 -15 5 0 6 -4 8 -9 4
-5 -3 -12 -1 -16 5 -4 6 -10 8 -15 5 -5 -3 -12 -1 -15 5 -4 6 -15 8 -26 5 -10
-4 -19 -3 -19 2 0 8 -15 12 -57 15 -7 1 -13 6 -13 11 0 5 -7 7 -15 3 -8 -3
-15 -1 -15 4 0 5 -7 6 -17 3 -11 -4 -14 -3 -9 5 5 8 2 10 -9 6 -8 -4 -22 -1
-29 5 -11 9 -15 9 -18 0 -3 -8 -8 -7 -19 3 -8 8 -21 15 -29 16 -8 0 -25 3 -37
6 -39 10 -67 17 -80 20 -7 1 -15 5 -19 8 -3 4 -12 4 -20 1 -8 -3 -14 -1 -14 4
0 5 -8 9 -17 10 -43 3 -74 11 -86 22 -8 6 -16 8 -19 5 -6 -5 -67 9 -105 23
-12 5 -14 3 -8 -8 8 -12 6 -12 -8 0 -15 12 -41 19 -84 23 -7 1 -13 4 -13 8 0
4 -12 6 -27 5 -16 -1 -34 2 -40 8 -7 5 -13 6 -13 3 0 -4 -9 -2 -20 4 -15 8
-20 8 -20 -2 0 -10 -2 -10 -9 1 -5 7 -14 10 -20 7 -6 -4 -11 -2 -11 4 0 7 -6
10 -14 7 -8 -3 -17 -1 -20 6 -3 9 -5 9 -5 0 -1 -10 -7 -10 -28 -1 -16 6 -45
12 -67 13 -21 2 -42 9 -47 17 -7 10 -9 10 -9 0 0 -7 -5 -10 -11 -6 -7 4 -30 9
-53 11 -22 2 -42 7 -46 11 -3 4 -25 8 -50 9 -39 2 -85 9 -85 13 0 2 -76 10
-117 13 -21 1 -38 4 -38 7 0 5 -56 12 -117 14 -18 0 -33 4 -33 7 0 3 -17 7
-37 7 -83 4 -125 11 -141 24 -12 10 -14 10 -8 0 6 -10 -2 -11 -36 -5 -24 3
-60 7 -80 7 -21 0 -38 4 -38 9 0 5 -6 4 -14 -2 -8 -7 -17 -8 -20 -3 -3 5 -32
10 -63 11 -77 3 -96 6 -110 14 -6 4 -14 3 -18 -3 -4 -6 -11 -7 -17 -4 -6 4
-44 8 -84 10 -41 1 -78 6 -84 9 -5 3 -10 2 -10 -4 0 -6 -11 -7 -27 -2 -16 4
-38 6 -51 5 -12 -1 -25 3 -28 8 -3 5 -12 4 -20 -3 -11 -9 -14 -8 -14 2 0 9 -3
10 -8 4 -9 -13 -32 -18 -32 -7 0 10 -30 9 -48 -2 -6 -4 -12 -2 -12 3 0 6 -5
11 -11 11 -5 0 -7 -5 -3 -12 5 -7 3 -8 -7 -2 -23 14 -82 15 -91 1 -5 -7 -8 -8
-8 -1 0 15 -570 15 -570 0 0 -8 -3 -8 -8 -1 -9 13 -62 14 -62 1 0 -5 -7 -3
-15 4 -12 10 -15 10 -15 -1 0 -12 -2 -12 -9 0 -6 10 -10 10 -16 1 -6 -9 -10
-9 -16 1 -5 8 -9 9 -9 4 0 -6 -9 -11 -20 -12 -11 -1 -18 2 -15 8 4 5 4 9 1 9
-3 0 -7 -4 -10 -8z"/>
<path d="M14249 11109 c-7 -15 -8 -19 0 -15 7 5 9 1 5 -8 -3 -9 -10 -13 -15
-10 -8 5 -13 -9 -10 -28 0 -5 -4 -8 -10 -8 -5 0 -8 -4 -5 -9 3 -5 -1 -12 -10
-15 -10 -4 -14 -14 -11 -26 3 -11 1 -18 -4 -14 -8 5 -13 -9 -10 -28 0 -5 -4
-8 -10 -8 -5 0 -8 -4 -5 -8 3 -5 -4 -19 -15 -31 -11 -12 -17 -26 -13 -33 5 -7
2 -9 -9 -5 -11 4 -14 2 -10 -9 3 -8 -3 -22 -13 -30 -11 -9 -12 -12 -4 -8 13 7
13 6 0 -12 -8 -10 -21 -25 -28 -33 -7 -7 -11 -20 -8 -27 3 -8 -1 -14 -9 -14
-7 0 -17 -5 -21 -12 -5 -7 -2 -9 7 -4 8 4 6 1 -3 -7 -10 -8 -15 -17 -11 -20 3
-4 1 -7 -6 -7 -7 0 -10 -4 -7 -9 3 -5 -1 -12 -10 -15 -9 -4 -14 -13 -10 -21 3
-8 1 -15 -5 -15 -6 0 -7 -6 -3 -12 5 -8 0 -7 -11 2 -10 8 -16 10 -12 3 4 -6 2
-15 -4 -18 -5 -4 -8 -14 -5 -22 3 -8 1 -11 -4 -8 -6 3 -10 2 -10 -4 0 -5 -12
-23 -26 -40 -14 -17 -23 -31 -20 -31 3 0 -3 -9 -14 -20 -12 -12 -18 -25 -15
-30 3 -5 0 -12 -6 -16 -8 -5 -10 -2 -5 7 4 8 -4 1 -18 -16 -16 -18 -24 -38
-21 -50 3 -11 2 -14 -1 -7 -8 17 -27 15 -20 -3 3 -8 1 -14 -3 -12 -5 1 -8 -1
-7 -4 2 -9 -32 -39 -46 -39 -10 0 -9 -3 2 -10 11 -7 11 -10 2 -10 -8 0 -10 -5
-6 -12 5 -9 2 -8 -9 1 -15 12 -17 12 -11 -4 5 -13 4 -16 -4 -11 -8 5 -12 0
-12 -13 0 -12 -6 -21 -13 -21 -8 0 -22 -15 -32 -34 -11 -19 -24 -34 -29 -33
-6 1 -10 -6 -10 -15 1 -11 -5 -15 -17 -13 -10 2 -22 -1 -25 -7 -5 -7 -2 -8 6
-3 8 5 11 3 8 -6 -3 -8 -11 -13 -17 -12 -10 3 -15 -10 -12 -29 0 -5 -3 -7 -7
-5 -4 1 -22 -12 -39 -30 -17 -17 -34 -29 -39 -25 -4 4 -4 -1 -1 -10 3 -10 3
-17 -1 -17 -22 4 -31 -3 -25 -18 5 -12 2 -15 -10 -10 -9 3 -19 1 -23 -5 -5 -7
-2 -8 7 -4 8 4 5 0 -6 -9 -11 -9 -19 -21 -18 -26 2 -5 0 -8 -5 -8 -19 3 -33
-2 -27 -11 5 -9 -7 -14 -27 -11 -4 0 -5 -9 -3 -20 3 -17 2 -19 -10 -9 -12 10
-13 8 -10 -10 3 -16 1 -19 -8 -12 -13 11 -41 -10 -30 -22 4 -3 -1 -6 -9 -6 -9
0 -19 -7 -22 -16 -3 -8 -10 -12 -16 -9 -5 3 -10 2 -10 -2 0 -5 -7 -18 -16 -29
-8 -10 -13 -12 -9 -4 4 8 -5 3 -18 -12 -14 -15 -27 -24 -30 -22 -3 3 -10 -3
-16 -14 -6 -11 -22 -23 -36 -26 -14 -4 -23 -11 -20 -16 3 -5 -4 -11 -15 -15
-11 -4 -18 -11 -14 -16 3 -5 2 -8 -3 -7 -16 4 -53 -14 -48 -23 4 -5 1 -10 -4
-10 -6 -1 -16 -2 -21 -3 -6 0 -15 -8 -20 -16 -5 -8 -15 -15 -22 -15 -7 0 -12
-9 -10 -20 3 -16 1 -18 -9 -7 -11 10 -17 8 -32 -10 -10 -13 -16 -16 -12 -8 4
10 2 9 -8 -2 -8 -10 -17 -15 -20 -11 -4 3 -7 -1 -7 -11 0 -10 -5 -14 -11 -11
-6 4 -20 -3 -31 -15 -11 -12 -26 -19 -34 -16 -8 3 -14 -1 -14 -9 0 -8 -9 -15
-20 -15 -11 0 -20 -4 -20 -10 0 -5 -7 -10 -16 -10 -8 0 -12 -4 -9 -10 3 -6 -1
-7 -9 -4 -9 3 -16 1 -16 -5 0 -6 -3 -10 -7 -9 -15 3 -43 -14 -37 -23 3 -5 -2
-6 -10 -3 -9 3 -16 1 -16 -6 0 -6 -4 -9 -9 -6 -5 3 -14 -1 -21 -9 -7 -8 -16
-13 -20 -10 -5 3 -16 -2 -24 -11 -9 -8 -16 -12 -16 -8 0 3 -7 1 -15 -6 -8 -6
-19 -9 -25 -5 -6 4 -9 1 -8 -6 2 -7 -1 -14 -7 -15 -28 -4 -74 -27 -69 -35 3
-5 0 -9 -5 -9 -6 0 -11 6 -11 13 -1 7 -7 4 -15 -7 -8 -10 -21 -16 -29 -13 -11
4 -13 1 -9 -10 4 -11 3 -14 -6 -9 -6 4 -19 2 -28 -6 -14 -11 -16 -11 -9 2 4 8
0 6 -8 -4 -9 -11 -16 -16 -16 -12 0 5 -11 1 -25 -8 -14 -9 -25 -14 -25 -10 0
4 -7 1 -15 -6 -8 -7 -15 -9 -15 -4 0 4 -7 -1 -16 -12 -8 -10 -13 -13 -9 -6 3
6 1 12 -4 12 -6 0 -11 -5 -11 -11 0 -6 -6 -9 -14 -6 -8 3 -20 0 -26 -8 -6 -8
-19 -11 -27 -8 -12 5 -14 3 -8 -8 7 -11 5 -11 -10 1 -14 11 -17 12 -11 1 6 -9
5 -12 -5 -9 -8 3 -27 -4 -43 -15 -16 -12 -27 -16 -23 -10 5 8 -1 8 -22 0 -17
-6 -27 -15 -24 -20 3 -5 -3 -5 -13 0 -18 9 -71 -7 -60 -18 2 -2 -8 -4 -22 -5
-35 0 -55 -7 -64 -19 -5 -6 -8 -5 -8 4 0 10 -3 11 -13 2 -8 -6 -17 -8 -20 -4
-4 3 -7 1 -7 -6 0 -7 -4 -10 -8 -7 -5 3 -26 0 -48 -6 -21 -6 -43 -11 -48 -9
-5 1 -13 -4 -17 -11 -7 -10 -9 -10 -9 1 0 10 -3 11 -13 3 -7 -6 -25 -9 -39 -8
-15 2 -25 -1 -22 -6 4 -5 -2 -9 -12 -7 -11 1 -27 -1 -36 -6 -10 -4 -25 -5 -33
-1 -8 3 -15 1 -15 -5 0 -6 -4 -7 -10 -4 -5 3 -15 3 -22 -1 -16 -10 -69 -13
-63 -4 3 5 -4 6 -15 3 -11 -3 -20 -10 -20 -15 0 -6 -7 -5 -15 2 -11 10 -15 10
-15 0 0 -6 -6 -10 -12 -7 -7 2 -21 0 -30 -5 -13 -6 -18 -5 -18 4 0 8 -3 9 -8
3 -9 -12 -32 -13 -51 -1 -10 7 -12 6 -6 -4 6 -10 -1 -12 -33 -7 -23 3 -42 2
-42 -2 0 -3 -21 -6 -47 -5 -27 0 -52 -2 -57 -4 -17 -9 -76 -7 -80 3 -3 6 -5 4
-5 -4 -1 -11 -4 -11 -16 -1 -10 9 -15 9 -15 1 0 -13 -22 -10 -32 4 -5 6 -8 5
-8 -3 0 -9 -5 -10 -19 -2 -14 7 -22 7 -26 0 -5 -8 -11 -7 -21 1 -11 9 -14 9
-14 -1 0 -9 -4 -9 -17 1 -15 12 -16 12 -8 -1 7 -12 6 -13 -6 -4 -8 5 -54 11
-104 13 -50 1 -96 8 -104 14 -12 9 -13 9 -7 0 4 -7 2 -13 -3 -13 -6 0 -11 5
-11 12 0 6 -7 3 -16 -8 -8 -10 -13 -14 -10 -8 8 16 -29 25 -43 11 -8 -8 -11
-7 -11 2 0 8 -12 11 -40 8 -21 -2 -44 1 -49 6 -7 7 -15 6 -26 -3 -13 -11 -16
-11 -13 0 3 13 -23 19 -85 21 -15 0 -25 4 -23 7 2 4 -8 7 -22 6 -15 -1 -35 3
-44 8 -13 6 -18 5 -18 -4 0 -10 -2 -10 -9 0 -4 8 -12 14 -17 14 -5 0 -15 3
-22 6 -7 2 -15 2 -18 -1 -3 -3 -22 1 -41 9 -19 9 -38 13 -40 10 -3 -3 -14 -1
-24 5 -15 8 -18 6 -13 -8 4 -13 2 -12 -8 3 -7 12 -21 20 -30 19 -10 -2 -18 0
-18 5 0 4 -9 6 -20 3 -11 -3 -20 -1 -20 5 0 5 -12 10 -26 10 -15 0 -29 4 -33
9 -3 6 -14 9 -24 7 -9 -1 -24 4 -32 13 -11 10 -15 11 -15 2 0 -8 -7 -5 -16 7
-15 19 -16 19 -10 -1 6 -19 5 -19 -7 -3 -8 10 -17 15 -20 11 -4 -3 -7 0 -7 8
0 11 -2 11 -10 -1 -8 -12 -10 -12 -10 -1 0 9 -8 12 -25 9 -13 -3 -22 -1 -19 4
6 9 -37 28 -48 21 -5 -2 -8 1 -8 7 0 7 -7 10 -15 6 -8 -3 -15 -1 -15 5 0 6 -7
9 -15 5 -8 -3 -15 -1 -15 5 0 5 -8 9 -17 7 -11 -2 -17 2 -15 11 2 8 -3 11 -12
8 -9 -4 -22 0 -30 8 -7 8 -16 11 -20 8 -3 -3 -14 2 -25 11 -15 13 -20 14 -24
4 -4 -9 -6 -7 -6 4 -1 11 -8 16 -21 13 -11 -2 -20 0 -20 6 0 5 -9 9 -20 9 -11
0 -20 4 -20 9 0 10 -36 26 -70 30 -5 0 -10 7 -10 15 0 8 -9 12 -27 10 -17 -2
-45 -22 -79 -59 -34 -37 -57 -55 -65 -50 -7 5 -10 4 -6 -2 4 -6 -2 -22 -14
-34 -11 -13 -17 -18 -13 -10 5 9 3 12 -4 7 -7 -4 -12 -14 -12 -22 0 -8 -5 -14
-11 -14 -5 0 -7 5 -4 10 15 24 -4 7 -21 -17 -17 -27 -17 -28 2 -13 18 14 18
14 5 -2 -7 -10 -20 -18 -27 -18 -8 0 -14 -5 -14 -11 0 -5 -4 -8 -9 -4 -5 3
-12 -4 -16 -15 -4 -11 -11 -17 -17 -14 -6 4 -8 -2 -3 -17 4 -17 3 -20 -3 -10
-8 11 -12 10 -21 -5 -6 -11 -11 -16 -11 -13 0 4 -51 -43 -112 -104 -62 -61
-112 -115 -111 -119 2 -4 -5 -4 -14 -1 -12 5 -14 3 -8 -7 6 -10 4 -12 -7 -7
-11 4 -18 -2 -22 -19 -4 -14 -11 -22 -16 -19 -5 3 -14 -4 -20 -15 -6 -11 -17
-20 -25 -20 -9 0 -12 -6 -8 -17 4 -10 2 -14 -4 -10 -6 4 -25 -9 -42 -28 -17
-19 -35 -35 -41 -35 -6 0 -9 -4 -6 -9 3 -4 -6 -13 -19 -19 -14 -7 -25 -19 -25
-27 0 -9 -4 -14 -9 -11 -5 3 -12 -1 -15 -10 -3 -8 -10 -12 -16 -9 -6 3 -7 -1
-4 -10 4 -10 2 -15 -7 -13 -8 2 -13 -3 -12 -9 2 -7 -3 -12 -10 -10 -6 1 -11
-4 -10 -10 2 -7 0 -12 -5 -12 -4 1 -14 1 -22 0 -13 -1 -13 -2 0 -11 13 -8 12
-10 -2 -10 -10 0 -18 -4 -18 -9 0 -5 -9 -11 -20 -14 -13 -3 -18 -10 -14 -21 5
-12 2 -15 -12 -9 -13 5 -16 3 -11 -10 3 -9 3 -16 -1 -16 -20 3 -32 -2 -29 -13
1 -7 -4 -12 -10 -11 -7 2 -13 -2 -13 -8 0 -5 -5 -7 -10 -4 -6 4 -9 3 -8 -2 4
-10 -44 -59 -54 -56 -5 2 -8 -4 -8 -12 0 -8 -8 -15 -17 -15 -9 0 -14 -3 -10
-6 8 -8 -16 -33 -25 -27 -5 2 -8 -3 -8 -11 0 -14 -12 -20 -32 -17 -5 0 -7 -2
-5 -7 1 -4 -16 -24 -38 -45 -22 -22 -34 -35 -26 -31 9 5 12 3 7 -5 -4 -6 -11
-9 -15 -6 -5 2 -17 -3 -27 -11 -10 -9 -14 -13 -8 -10 6 3 11 -1 11 -8 0 -8 -6
-12 -13 -9 -6 2 -18 -5 -26 -16 -8 -12 -18 -18 -23 -13 -4 4 -5 -1 -2 -10 4
-11 2 -17 -6 -15 -7 1 -11 -4 -9 -12 3 -12 1 -12 -14 0 -10 8 -15 9 -11 3 7
-12 -45 -64 -64 -64 -6 0 -9 -7 -6 -14 4 -9 -2 -17 -14 -21 -10 -4 -19 -10
-19 -15 0 -5 -9 -11 -20 -15 -11 -3 -19 -12 -17 -18 1 -7 -6 -11 -15 -11 -10
1 -14 -4 -11 -12 3 -8 -1 -14 -10 -14 -9 0 -19 -5 -23 -12 -5 -7 -3 -8 6 -3 8
5 11 4 7 -2 -4 -6 -20 -16 -36 -23 -21 -8 -28 -17 -24 -28 4 -9 2 -13 -4 -9
-15 9 -36 -19 -27 -35 5 -9 2 -8 -12 2 -10 8 -16 10 -12 6 5 -5 -1 -16 -12
-23 -11 -8 -18 -18 -15 -23 5 -8 -12 -24 -25 -25 -16 -1 -60 -40 -60 -53 0 -8
-3 -13 -6 -9 -3 3 -12 1 -18 -6 -9 -8 -10 -15 -2 -23 6 -7 14 -10 19 -7 4 2 7
-1 7 -7 0 -6 5 -8 10 -5 6 3 10 -2 10 -12 0 -15 2 -16 10 -3 8 13 10 12 10 -2
0 -10 7 -18 15 -18 8 0 15 -4 15 -10 0 -5 5 -10 11 -10 5 0 7 6 3 13 -4 7 -3
9 2 4 5 -5 9 -14 9 -20 0 -6 14 -14 32 -19 20 -5 30 -13 27 -21 -3 -8 4 -13
17 -14 11 -1 29 -11 38 -22 10 -11 21 -18 25 -14 3 3 6 1 6 -6 0 -7 5 -9 10
-6 6 3 10 1 10 -5 0 -6 4 -9 9 -6 5 3 12 -1 15 -10 3 -8 10 -12 16 -9 5 3 10
-2 11 -12 0 -10 3 -13 5 -6 4 8 11 6 25 -8 21 -21 45 -26 33 -7 -4 7 -3 8 5 4
6 -4 9 -10 7 -14 -7 -11 18 -29 37 -26 9 1 15 -1 12 -5 -2 -5 17 -19 43 -32
26 -13 50 -28 53 -33 4 -5 11 -6 17 -2 6 3 14 1 18 -5 5 -8 3 -9 -6 -4 -8 5
-11 4 -6 -3 3 -6 15 -9 25 -7 13 2 21 -4 25 -18 5 -18 8 -19 15 -7 9 12 11 12
16 -2 4 -10 13 -14 22 -11 10 4 14 2 10 -4 -10 -16 18 -24 32 -10 9 9 11 8 5
-7 -5 -14 -3 -17 7 -14 8 3 20 -2 27 -11 11 -13 12 -13 7 -1 -4 8 5 2 20 -15
14 -16 24 -24 20 -17 -9 18 11 15 31 -5 9 -9 26 -19 38 -20 11 -2 23 -8 24
-13 2 -6 7 -8 12 -5 5 3 16 -2 24 -11 12 -12 16 -12 17 -2 0 7 4 4 9 -7 5 -12
9 -14 9 -6 1 12 4 11 14 -3 7 -9 22 -18 35 -19 12 0 22 -4 22 -8 0 -12 48 -27
59 -18 6 5 9 6 6 3 -6 -9 21 -33 42 -37 10 -2 29 -9 43 -14 14 -6 29 -8 34 -5
5 3 6 0 2 -6 -7 -12 4 -16 35 -13 9 1 19 -5 22 -13 4 -9 13 -13 22 -10 8 3 15
1 15 -5 0 -6 11 -11 25 -11 13 0 29 -8 34 -17 8 -14 10 -15 11 -3 0 13 1 13
10 0 5 -8 10 -11 10 -6 0 5 7 3 15 -4 8 -6 18 -9 24 -6 5 4 16 -1 24 -9 9 -8
25 -15 36 -15 12 0 21 -4 21 -8 0 -8 14 -12 53 -13 9 0 17 -5 17 -10 0 -6 5
-7 10 -4 6 3 10 1 10 -5 0 -7 8 -9 20 -5 11 3 20 2 20 -3 0 -6 7 -13 16 -16
10 -4 13 -2 8 7 -5 8 -2 7 9 -2 9 -7 17 -10 17 -5 0 5 5 2 10 -6 7 -11 10 -12
10 -2 0 10 4 10 15 -2 9 -8 23 -12 32 -9 12 5 14 3 8 -7 -5 -9 -4 -11 4 -6 6
4 17 3 24 -2 7 -5 20 -8 30 -7 9 2 17 -1 17 -7 0 -6 9 -8 20 -5 11 3 20 1 20
-5 0 -5 5 -6 10 -3 6 3 10 2 10 -2 0 -5 8 -10 17 -11 22 -2 58 -10 58 -12 0
-1 13 -4 30 -6 16 -3 36 -11 44 -17 12 -10 13 -9 7 2 -5 8 3 6 20 -5 21 -14
26 -15 19 -4 -8 13 -6 13 8 2 9 -8 21 -11 27 -7 5 3 10 3 10 -2 0 -4 12 -9 27
-10 15 0 29 -6 31 -12 3 -9 8 -9 18 0 11 9 14 9 14 -1 0 -9 4 -9 17 1 11 10
14 10 9 2 -4 -8 -2 -14 6 -14 38 -4 56 -7 88 -16 19 -5 45 -8 58 -7 12 1 22
-2 22 -7 0 -4 8 -8 18 -8 9 0 35 -3 57 -6 22 -4 48 -7 57 -6 10 0 21 -5 24
-11 4 -6 10 -5 15 3 7 11 9 11 9 1 0 -7 5 -10 11 -6 6 3 15 0 20 -7 7 -12 9
-11 9 1 0 13 1 13 10 0 9 -13 11 -13 20 0 7 11 10 11 10 2 0 -7 4 -11 9 -7 5
3 12 2 14 -2 3 -5 24 -8 46 -7 23 0 41 -4 41 -9 0 -5 7 -4 15 3 8 7 15 8 15 2
0 -5 12 -10 28 -11 99 -3 122 -6 122 -14 0 -5 6 -4 13 2 8 6 17 8 21 4 7 -7
91 -15 154 -14 17 0 32 -5 32 -11 0 -6 6 -5 16 3 13 10 17 10 25 -2 6 -9 12
-10 17 -4 8 11 42 16 42 6 0 -3 97 -7 215 -9 167 -1 215 1 215 10 0 9 3 9 8 3
8 -12 27 -13 37 -3 4 4 15 4 24 0 13 -6 64 -8 81 -3 3 1 50 4 105 6 111 5 125
7 142 18 6 4 14 3 18 -3 4 -6 12 -7 18 -3 17 11 41 10 49 -2 5 -6 8 -6 8 2 0
6 11 10 25 8 14 -1 25 1 25 5 0 4 17 6 38 5 20 -1 41 0 46 3 11 6 77 14 118
14 15 0 25 4 22 9 -3 5 6 5 20 -1 20 -7 27 -6 35 8 7 12 10 13 11 3 0 -10 3
-11 14 -2 11 9 15 9 19 -1 4 -10 6 -10 6 0 1 7 14 12 32 12 16 0 28 4 24 9 -3
6 6 6 25 1 17 -5 30 -5 30 0 0 5 7 7 15 4 8 -4 15 -2 15 4 0 12 43 10 52 -3 5
-6 8 -4 8 5 0 9 8 16 18 17 52 3 110 16 131 29 13 9 20 11 17 5 -10 -15 4 -14
37 3 17 9 27 11 27 4 0 -7 5 -6 15 2 8 6 19 9 25 5 5 -3 10 -2 10 4 0 5 9 8
20 6 11 -2 20 1 20 6 0 6 4 8 9 4 5 -3 12 -1 15 4 3 5 15 7 26 4 11 -3 20 -1
20 5 0 6 9 9 20 7 11 -2 20 0 20 5 0 4 11 7 25 5 14 -1 25 2 25 6 0 5 11 9 24
9 14 0 28 5 31 11 4 6 13 8 20 5 7 -2 23 3 36 11 17 13 20 13 14 2 -6 -11 -5
-12 6 -1 7 6 23 12 36 12 13 0 23 5 23 11 0 6 7 8 16 5 8 -3 26 1 39 10 13 9
29 13 35 9 5 -3 10 -2 10 3 0 6 16 13 35 16 19 4 35 12 35 19 0 8 3 8 9 -2 6
-9 11 -10 15 -2 4 6 16 11 27 11 10 0 19 4 19 8 0 4 10 9 22 9 13 1 24 7 26
13 2 5 15 10 28 10 13 0 24 6 24 13 0 9 2 9 9 -1 7 -11 9 -11 14 2 4 9 14 13
27 11 11 -2 18 0 15 6 -4 5 5 9 19 9 14 0 26 5 26 11 0 6 6 9 13 6 6 -2 18 3
25 12 10 12 12 13 6 1 -7 -13 -5 -13 9 -1 9 7 17 10 17 5 0 -4 7 1 16 12 8 10
12 12 8 4 -6 -12 -5 -13 7 -3 8 6 17 11 21 10 3 -1 10 2 15 7 5 6 2 6 -7 1 -9
-5 -12 -4 -7 1 5 5 14 9 20 10 7 0 20 2 30 2 10 1 16 6 12 11 -3 6 4 8 15 6
11 -2 20 0 20 6 0 5 3 8 8 8 20 -3 32 2 26 13 -4 6 -3 8 4 4 6 -3 13 -2 17 4
3 5 15 10 26 10 10 0 19 5 19 11 0 6 7 9 15 5 8 -3 15 -1 15 4 0 6 3 10 8 9
15 -2 52 14 52 23 0 5 5 6 10 3 6 -3 13 0 16 9 3 8 12 12 20 9 8 -3 14 0 14 6
0 6 3 10 8 9 10 -2 104 44 120 60 8 7 18 10 23 7 5 -4 9 -2 9 4 0 6 7 7 17 4
11 -4 14 -3 9 5 -4 7 -1 12 9 12 8 0 18 7 21 15 5 13 9 13 22 3 9 -7 13 -8 10
-3 -10 16 16 35 48 35 8 0 12 5 9 10 -3 6 1 11 9 11 29 3 32 4 50 22 10 9 22
14 28 11 7 -4 8 -2 4 4 -4 7 -1 12 8 12 8 0 24 9 34 21 11 11 29 21 41 22 11
1 21 7 21 15 0 7 4 11 9 8 4 -3 19 3 31 14 12 11 27 17 31 14 5 -3 9 1 9 8 0
8 20 22 45 32 24 10 42 23 39 27 -5 8 8 12 22 7 4 -2 10 7 15 19 5 15 14 21
24 17 8 -3 15 -1 15 5 0 6 7 11 16 11 8 0 12 5 9 10 -3 6 3 10 15 10 11 0 23
6 26 14 7 18 44 9 44 -11 0 -8 3 -12 8 -10 10 7 32 -19 24 -28 -4 -4 -2 -6 3
-4 16 4 45 -12 39 -22 -3 -5 2 -12 10 -15 9 -3 13 -11 9 -17 -3 -5 -1 -7 4 -4
6 4 25 -9 42 -29 20 -22 38 -34 47 -30 8 3 13 2 9 -3 -7 -12 5 -41 17 -41 5 0
6 6 2 13 -4 6 2 3 14 -7 25 -21 31 -36 7 -16 -10 8 -15 9 -15 1 0 -6 11 -13
24 -17 18 -4 23 -11 19 -22 -4 -10 -3 -14 2 -10 4 4 22 -8 40 -27 17 -19 35
-32 39 -28 3 3 6 -1 6 -10 0 -9 5 -19 12 -23 7 -5 8 -2 3 7 -4 8 2 4 14 -8 11
-12 21 -27 21 -33 0 -5 9 -10 20 -10 13 0 18 -5 14 -15 -4 -8 -1 -15 6 -15 7
0 34 -23 62 -51 34 -35 55 -49 66 -44 9 3 13 3 9 -1 -4 -4 -1 -14 6 -23 11
-14 10 -15 -8 -1 -19 14 -19 14 -6 -2 7 -10 20 -18 27 -18 8 0 19 -12 24 -26
8 -21 13 -24 24 -15 11 9 14 8 12 -6 0 -10 6 -18 14 -18 9 0 14 -8 12 -18 -2
-11 4 -17 16 -17 11 0 23 -7 26 -16 3 -8 11 -12 17 -8 8 4 9 3 5 -5 -8 -12 18
-44 28 -34 3 4 6 -2 6 -12 0 -10 3 -15 7 -12 3 4 15 -5 25 -20 10 -16 18 -25
18 -20 0 4 9 -2 20 -13 11 -11 20 -24 20 -30 0 -5 3 -9 8 -9 4 1 14 1 22 0 13
-1 13 -2 0 -11 -13 -8 -13 -10 1 -10 9 0 27 -13 40 -30 23 -28 48 -43 33 -18
-4 7 -3 8 4 4 6 -4 8 -14 5 -23 -4 -11 -3 -14 5 -9 7 4 12 1 12 -9 0 -9 5 -13
10 -10 6 3 10 -1 10 -9 0 -15 12 -21 33 -17 5 1 6 -2 3 -7 -2 -4 -1 -14 5 -22
7 -13 9 -13 9 0 1 9 5 6 10 -7 5 -13 16 -23 25 -23 8 0 14 -6 12 -12 -1 -7 4
-12 11 -11 7 2 12 -7 12 -20 0 -18 2 -19 10 -7 9 13 10 13 11 0 1 -8 1 -19 0
-23 -1 -5 2 -6 7 -3 11 6 23 -3 50 -38 12 -16 22 -26 22 -23 0 4 14 -7 30 -23
17 -16 30 -34 30 -40 0 -9 14 -14 32 -11 5 0 7 -2 5 -7 -1 -4 9 -19 23 -32 14
-14 22 -21 18 -16 -5 6 -8 15 -8 21 1 11 20 -19 21 -32 0 -5 5 -13 10 -20 7
-8 4 -13 -11 -18 -11 -4 -17 -11 -14 -17 5 -8 1 -9 -10 -5 -9 4 -15 3 -13 -1
5 -7 -24 -40 -30 -34 -2 1 -9 2 -15 2 -9 0 -8 -4 2 -10 12 -8 11 -10 -7 -10
-13 0 -23 -4 -23 -10 0 -5 -7 -10 -16 -10 -9 0 -12 -5 -8 -12 5 -8 2 -9 -10
-5 -9 4 -15 3 -12 -2 3 -5 -1 -12 -10 -15 -8 -3 -12 -10 -9 -16 3 -5 0 -7 -8
-4 -8 3 -18 0 -22 -5 -3 -6 -11 -9 -16 -5 -5 3 -8 0 -7 -8 2 -8 -4 -12 -17
-10 -11 2 -17 1 -13 -4 4 -4 0 -13 -10 -21 -11 -9 -11 -12 -2 -7 13 6 13 5 1
-7 -10 -11 -15 -11 -18 -2 -4 10 -7 10 -18 0 -7 -7 -11 -15 -9 -18 2 -4 -3
-10 -12 -13 -10 -4 -13 -2 -8 6 4 7 3 8 -4 4 -7 -4 -12 -14 -12 -23 0 -9 -3
-13 -7 -10 -3 4 -15 0 -25 -10 -10 -9 -18 -12 -18 -7 0 5 -10 -2 -21 -16 -11
-14 -17 -18 -13 -10 4 8 -3 5 -15 -7 -12 -13 -28 -23 -36 -23 -8 0 -19 -9 -25
-20 -6 -11 -16 -19 -23 -17 -7 1 -11 -3 -10 -10 2 -8 -4 -10 -14 -6 -12 5 -14
3 -8 -7 5 -9 4 -11 -4 -6 -6 4 -18 0 -27 -8 -9 -9 -21 -13 -27 -9 -6 4 -8 0
-4 -10 3 -9 3 -16 -1 -16 -22 4 -32 -2 -26 -13 5 -8 0 -7 -11 2 -10 8 -16 11
-13 5 3 -5 0 -16 -8 -23 -8 -7 -14 -10 -14 -5 0 4 -7 -2 -16 -13 -8 -10 -13
-13 -9 -6 3 6 2 12 -4 12 -5 0 -13 -9 -16 -21 -5 -16 -9 -18 -21 -8 -9 7 -14
8 -12 3 2 -5 -1 -10 -5 -11 -5 -1 -17 -11 -26 -22 -10 -11 -21 -18 -24 -15 -9
10 -57 -27 -57 -45 0 -12 -2 -13 -9 -3 -7 11 -10 11 -22 0 -17 -16 -71 -42
-81 -40 -5 1 -8 -4 -8 -12 0 -8 -6 -14 -12 -13 -19 1 -78 -26 -78 -35 0 -4 -7
-8 -15 -8 -8 0 -15 -5 -15 -11 0 -6 -7 -9 -15 -5 -9 3 -15 0 -15 -10 0 -8 -5
-12 -10 -9 -6 3 -17 -1 -26 -9 -8 -9 -22 -16 -30 -16 -8 0 -14 -4 -14 -10 0
-5 -7 -10 -15 -10 -8 0 -15 -6 -15 -12 0 -10 -2 -10 -9 0 -7 11 -9 10 -15 -3
-3 -9 -10 -13 -16 -10 -5 3 -10 1 -10 -6 0 -7 -3 -9 -6 -6 -9 9 -46 -12 -39
-23 3 -4 -5 -6 -17 -2 -16 4 -19 2 -13 -8 6 -10 4 -12 -9 -7 -10 4 -24 1 -33
-8 -8 -8 -19 -13 -24 -10 -5 4 -9 1 -9 -5 0 -7 -7 -9 -17 -6 -10 4 -14 4 -10
0 6 -6 -43 -35 -65 -38 -3 -1 -10 -4 -14 -9 -4 -4 -16 -7 -26 -7 -10 0 -18 -4
-18 -10 0 -5 -7 -10 -15 -10 -8 0 -15 -5 -15 -11 0 -6 -7 -9 -15 -5 -8 3 -15
2 -15 -3 0 -4 -7 -8 -15 -9 -8 -1 -21 -3 -29 -4 -8 -1 -12 -7 -9 -13 2 -8 -6
-12 -24 -11 -15 0 -27 -4 -26 -10 1 -9 -12 -13 -54 -16 -7 -1 -13 -5 -13 -10
0 -5 -4 -7 -9 -4 -5 3 -12 -2 -15 -11 -6 -15 -8 -15 -16 -3 -6 8 -10 10 -10 5
0 -6 -9 -16 -21 -23 -12 -8 -18 -9 -15 -3 4 7 1 8 -8 5 -9 -3 -16 -10 -16 -16
0 -5 -4 -7 -9 -4 -5 3 -14 -1 -21 -8 -6 -8 -20 -13 -31 -11 -10 2 -19 0 -19
-6 0 -5 -3 -8 -7 -8 -5 1 -11 0 -15 -1 -5 -1 -11 -3 -15 -4 -5 -1 -17 -7 -28
-13 -20 -11 -27 -13 -46 -13 -5 0 -8 -4 -5 -8 2 -4 -8 -8 -22 -7 -16 0 -26 -5
-25 -12 2 -7 -6 -10 -19 -8 -12 3 -27 0 -35 -6 -7 -7 -13 -8 -13 -3 0 5 -5 2
-10 -6 -9 -13 -10 -13 -10 0 0 13 -1 13 -10 0 -5 -8 -15 -15 -22 -15 -7 -1
-23 -7 -36 -13 -12 -7 -28 -10 -34 -6 -8 5 -9 2 -4 -11 5 -14 4 -16 -8 -6 -16
13 -49 4 -40 -11 4 -6 -1 -8 -14 -4 -11 4 -23 2 -27 -4 -3 -6 -11 -8 -16 -5
-5 4 -9 1 -9 -5 0 -6 -5 -8 -11 -4 -6 3 -21 2 -32 -4 -49 -23 -86 -34 -96 -27
-6 3 -11 1 -11 -5 0 -7 -7 -9 -16 -6 -8 3 -13 2 -10 -3 5 -7 -67 -26 -86 -22
-5 0 -8 -4 -8 -10 0 -5 -4 -7 -10 -4 -5 3 -16 3 -22 -2 -7 -4 -24 -9 -38 -11
-13 -2 -28 -9 -32 -15 -5 -9 -8 -8 -8 3 0 9 -3 11 -8 5 -8 -11 -27 -18 -54
-19 -10 0 -18 -4 -18 -9 0 -4 -5 -5 -10 -2 -6 4 -21 0 -33 -7 -12 -8 -34 -13
-49 -12 -16 2 -28 -2 -28 -7 0 -6 -4 -8 -9 -5 -5 4 -12 0 -14 -6 -4 -10 -6
-10 -6 0 -1 10 -6 10 -21 2 -17 -9 -54 -17 -97 -22 -7 -1 -13 -4 -13 -8 0 -4
-13 -6 -30 -4 -16 2 -30 -1 -30 -6 0 -5 -15 -8 -34 -6 -19 1 -33 -1 -30 -6 5
-7 -22 -12 -68 -11 -10 0 -18 -4 -18 -9 0 -5 -5 -6 -10 -3 -6 4 -17 1 -25 -5
-12 -10 -15 -10 -15 1 0 9 -3 10 -8 3 -4 -6 -17 -10 -29 -9 -13 1 -23 -3 -23
-8 0 -5 -6 -7 -14 -4 -7 3 -24 -2 -37 -10 -14 -11 -19 -12 -14 -3 6 10 2 11
-21 5 -16 -4 -38 -9 -49 -11 -11 -2 -30 -6 -42 -8 -14 -3 -23 0 -23 7 0 8 -3
7 -9 -2 -5 -7 -14 -10 -20 -7 -6 4 -11 2 -11 -4 0 -7 -6 -10 -14 -7 -7 3 -19
0 -25 -6 -9 -9 -14 -8 -21 3 -6 9 -13 11 -17 5 -5 -5 -17 -11 -28 -12 -45 -4
-72 -10 -83 -17 -7 -4 -12 -2 -12 5 0 8 -4 8 -15 -1 -12 -10 -15 -10 -15 1 0
9 -3 10 -8 4 -6 -9 -28 -13 -107 -19 -11 -1 -24 -4 -30 -6 -5 -3 -34 -5 -62
-5 -29 0 -53 -2 -53 -5 0 -3 -24 -5 -52 -4 -29 1 -59 -3 -65 -9 -9 -6 -13 -5
-13 3 0 10 -3 10 -14 1 -10 -9 -16 -9 -21 -1 -4 7 -11 8 -18 2 -11 -9 -72 -13
-219 -15 -38 -1 -68 -4 -68 -7 0 -8 -54 -7 -60 1 -3 4 -29 3 -57 -1 -29 -3
-53 -2 -53 2 0 5 -5 6 -12 2 -14 -9 -202 -9 -217 0 -6 4 -11 1 -11 -6 0 -9 -3
-9 -10 2 -8 12 -10 12 -10 1 0 -10 -3 -11 -13 -3 -7 6 -18 7 -27 2 -7 -4 -24
-4 -36 0 -14 6 -26 5 -29 0 -4 -6 -14 -7 -23 -2 -9 4 -44 7 -77 7 -33 0 -63 5
-67 10 -5 6 -8 5 -8 -4 0 -11 -3 -11 -15 -1 -10 8 -15 9 -15 2 0 -6 -7 -9 -15
-6 -8 3 -36 7 -63 8 -26 1 -53 5 -59 9 -6 4 -15 3 -18 -3 -4 -7 -11 -8 -18 -2
-7 5 -34 9 -60 8 -27 -1 -51 2 -53 5 -2 4 -20 6 -39 4 -20 -1 -35 3 -35 9 0 6
-5 4 -10 -4 -5 -8 -10 -10 -10 -5 0 6 -14 11 -30 12 -22 2 -29 -1 -23 -10 5
-9 3 -9 -8 0 -9 7 -30 13 -47 15 -18 1 -32 7 -32 13 0 6 -3 7 -8 0 -9 -13 -42
-15 -42 -3 0 7 -5 6 -13 -1 -9 -6 -17 -7 -23 -1 -5 5 -24 10 -42 12 -17 1 -32
6 -32 11 0 5 -7 4 -15 -3 -12 -10 -15 -10 -15 0 0 10 -3 10 -15 0 -9 -7 -15
-8 -15 -2 0 5 -13 9 -30 8 -21 -2 -30 2 -31 13 0 11 -2 12 -6 4 -3 -9 -10 -10
-24 -3 -14 8 -19 7 -19 -2 0 -10 -3 -10 -9 1 -5 8 -16 11 -25 8 -8 -3 -18 -2
-21 3 -4 6 -13 10 -21 10 -8 0 -12 -5 -8 -11 3 -6 -8 -4 -24 5 -17 9 -42 16
-57 16 -14 0 -25 6 -25 13 0 9 -2 9 -9 -1 -12 -20 -16 -19 -41 3 -17 14 -24
16 -27 7 -3 -6 -10 -9 -16 -5 -12 8 -17 9 -50 11 -12 1 -15 6 -11 15 5 8 2 8
-9 -2 -11 -8 -17 -9 -17 -3 0 6 -6 9 -14 6 -7 -3 -30 1 -49 10 -27 11 -37 11
-41 3 -3 -9 -5 -9 -5 0 -1 7 -8 10 -16 7 -8 -4 -15 -2 -15 3 0 6 -14 10 -31
11 -17 0 -38 7 -47 14 -13 11 -15 11 -7 -2 6 -12 5 -13 -6 -3 -7 7 -26 13 -41
13 -15 0 -28 4 -28 8 0 4 -15 9 -32 10 -18 2 -35 7 -36 13 -3 6 -9 6 -18 -2
-11 -9 -14 -8 -14 1 0 8 -3 10 -6 7 -4 -3 -15 -2 -25 3 -12 7 -20 6 -25 -1 -5
-9 -10 -8 -18 3 -14 19 -46 26 -65 14 -9 -6 -12 -5 -8 1 4 6 -1 17 -10 24 -14
12 -16 12 -8 -1 7 -12 6 -13 -6 -3 -12 10 -18 10 -28 0 -10 -9 -12 -9 -9 3 2
10 -3 14 -14 12 -10 -2 -18 2 -18 8 0 6 -5 8 -10 5 -6 -4 -18 -1 -27 7 -9 7
-18 12 -20 11 -9 -7 -43 -2 -39 6 3 5 0 9 -7 8 -33 -1 -58 4 -54 11 3 4 -5 8
-16 9 -36 4 -56 9 -63 16 -4 4 -16 7 -26 7 -10 0 -18 5 -18 11 0 5 -5 7 -10 4
-6 -4 -17 -1 -25 5 -8 6 -19 9 -24 6 -5 -4 -12 -2 -16 4 -3 5 -15 10 -26 10
-10 0 -19 6 -19 13 0 9 -3 8 -9 -2 -6 -10 -10 -10 -13 -1 -2 6 -15 13 -30 13
-14 1 -24 5 -21 10 2 4 -7 7 -21 7 -14 0 -26 5 -26 10 0 6 -14 10 -31 10 -20
0 -28 4 -23 12 5 8 2 9 -9 5 -10 -3 -17 -2 -17 3 0 5 -7 7 -15 4 -8 -4 -15 -1
-15 6 0 7 -8 10 -20 7 -11 -3 -18 -2 -15 3 6 9 -19 20 -46 20 -10 0 -19 4 -19
10 0 5 -7 7 -15 4 -10 -4 -15 0 -15 12 0 16 -2 17 -10 4 -8 -12 -10 -12 -10
-1 0 8 -3 11 -7 8 -3 -4 -15 0 -25 10 -13 12 -18 13 -18 3 0 -8 -8 -4 -19 9
-12 13 -21 17 -23 10 -3 -8 -9 -6 -21 5 -9 10 -17 15 -17 12 0 -3 -16 3 -36
15 -20 11 -39 18 -41 15 -9 -8 -44 14 -38 24 3 4 -4 6 -15 3 -12 -3 -20 0 -20
7 0 7 -8 10 -20 7 -13 -3 -20 0 -20 10 0 8 -4 12 -9 8 -5 -3 -16 1 -24 9 -11
11 -17 12 -27 3 -7 -7 -10 -7 -8 -2 3 6 0 16 -8 23 -11 10 -14 10 -14 0 0 -9
-3 -9 -10 2 -5 8 -14 16 -20 16 -5 1 -15 2 -21 3 -5 0 -7 6 -3 13 5 8 2 9 -10
5 -12 -5 -24 1 -38 15 -11 13 -17 17 -13 11 9 -18 -5 -16 -38 5 -15 10 -24 22
-20 26 4 4 0 4 -10 0 -10 -4 -17 -1 -17 6 0 7 -7 10 -15 6 -8 -3 -15 -1 -15 5
0 6 -4 7 -10 4 -6 -3 -10 -1 -10 4 0 6 -7 11 -16 11 -9 0 -12 5 -8 12 5 7 3 8
-5 4 -7 -5 -21 0 -33 11 -15 12 -19 13 -14 3 4 -8 1 -7 -8 4 -8 10 -19 15 -25
11 -6 -3 -11 1 -11 10 0 9 -5 13 -11 10 -6 -4 -22 4 -36 16 -15 13 -23 18 -19
12 4 -7 2 -13 -3 -13 -6 0 -11 7 -11 16 0 14 -3 14 -15 4 -13 -11 -14 -10 -9
4 6 14 -5 21 -28 17 -5 0 -8 4 -8 10 0 6 -7 9 -15 5 -8 -3 -14 0 -12 7 1 7 -6
11 -15 11 -10 -1 -18 5 -18 13 0 13 -3 13 -17 2 -10 -7 -15 -10 -11 -5 9 11
-16 36 -35 36 -8 0 -18 7 -21 16 -3 8 -10 12 -16 9 -5 -3 -10 -1 -10 4 0 6 -6
11 -14 11 -8 0 -22 7 -30 16 -9 8 -16 12 -16 7 0 -4 -4 -3 -8 4 -4 6 -14 13
-22 15 -20 4 -39 22 -33 31 2 4 1 7 -4 6 -23 -4 -43 2 -38 12 4 6 0 9 -11 7
-12 -2 -18 2 -16 10 1 8 -2 11 -7 8 -5 -3 -14 1 -21 10 -11 12 -15 12 -21 2
-6 -9 -9 -5 -9 11 0 13 -3 21 -7 18 -3 -4 -15 1 -26 10 -15 13 -19 14 -13 3 5
-9 2 -8 -7 2 -8 10 -17 15 -20 11 -4 -3 -7 1 -7 11 0 9 -4 15 -10 11 -5 -3
-18 3 -30 15 -11 11 -25 20 -30 20 -6 0 -10 5 -10 11 0 5 -4 8 -9 5 -5 -3 -12
1 -15 10 -4 9 -13 14 -21 10 -8 -3 -14 0 -12 6 1 7 -4 12 -11 13 -8 0 -19 7
-25 15 -7 8 -19 16 -27 18 -8 2 -22 11 -30 20 -22 24 -55 50 -46 35 5 -9 2
-11 -9 -7 -9 4 -14 9 -11 11 7 7 -20 33 -33 33 -6 0 -11 5 -11 11 0 6 -7 8
-16 5 -8 -3 -13 -2 -11 2 6 9 -19 33 -27 25 -3 -4 -6 2 -6 11 0 12 -5 16 -14
13 -9 -4 -17 2 -21 14 -4 10 -11 17 -16 14 -5 -4 -12 1 -15 9 -3 9 -10 14 -14
11 -5 -3 -11 -1 -15 5 -4 6 -12 7 -18 4 -7 -4 -9 -4 -5 1 4 4 3 14 -3 21 -8
10 -31 -8 -100 -77 -49 -49 -94 -89 -100 -89 -5 0 -8 -4 -5 -9 3 -5 -4 -11
-15 -14 -12 -3 -18 -10 -14 -16 3 -6 -1 -11 -9 -11 -9 0 -16 -5 -16 -11 0 -5
-6 -7 -12 -3 -8 5 -7 0 2 -11 9 -11 10 -16 2 -11 -14 8 -45 -18 -34 -29 4 -5
0 -6 -8 -3 -19 6 -54 -28 -37 -36 7 -2 4 -5 -5 -5 -10 -1 -18 -5 -18 -11 0 -5
-4 -10 -9 -10 -13 0 -81 -67 -81 -80 0 -6 -4 -9 -9 -6 -5 3 -16 -6 -25 -19 -9
-14 -21 -23 -27 -20 -5 4 -8 2 -7 -2 2 -5 -13 -25 -31 -44 -19 -19 -31 -28
-26 -20 5 10 4 12 -3 7 -7 -4 -12 -14 -12 -22 0 -9 -5 -12 -12 -8 -8 5 -9 2
-5 -10 4 -11 3 -15 -4 -10 -11 6 -79 -58 -79 -75 0 -6 -5 -13 -12 -17 -7 -4
-8 -3 -4 4 4 8 2 10 -7 6 -8 -3 -17 -15 -20 -26 -3 -11 -10 -17 -16 -14 -5 4
-12 -3 -16 -14 -4 -11 -9 -19 -13 -17 -9 5 -42 -30 -35 -36 2 -3 -5 -8 -16
-12 -11 -3 -30 -19 -42 -36 -11 -16 -25 -27 -30 -24 -9 6 -14 -9 -9 -30 1 -5
-2 -7 -5 -3 -4 4 -17 -4 -28 -18 -11 -14 -26 -23 -34 -20 -8 3 -11 1 -8 -4 3
-5 -3 -17 -14 -27 -11 -9 -18 -20 -16 -24 3 -4 -3 -6 -12 -5 -9 0 -27 -14 -40
-33 -13 -19 -23 -30 -23 -26 0 4 -25 -17 -55 -48 -30 -31 -55 -53 -55 -49 -1
4 -7 -4 -15 -18 -8 -14 -14 -21 -15 -16 0 5 -28 -20 -62 -55 -34 -35 -65 -63
-69 -62 -4 1 -10 -4 -13 -13 -4 -10 -2 -13 6 -8 7 4 8 3 4 -5 -4 -6 -12 -9
-17 -6 -5 4 -12 -1 -15 -9 -3 -9 -10 -14 -14 -11 -5 3 -12 -4 -15 -16 -4 -12
-12 -18 -21 -15 -12 5 -12 2 -3 -15 10 -19 9 -20 -10 -9 -12 6 -21 7 -20 3 3
-18 -2 -33 -10 -31 -5 2 -32 -21 -60 -49 -28 -29 -56 -53 -62 -53 -6 0 -7 -4
-4 -10 3 -5 -1 -10 -10 -10 -9 0 -14 -3 -12 -7 3 -5 -1 -14 -9 -21 -8 -7 -14
-10 -14 -7 0 4 -7 -1 -16 -9 -8 -9 -12 -21 -8 -28 5 -8 0 -7 -11 2 -10 8 -16
10 -12 3 5 -7 -1 -16 -13 -23 -11 -6 -19 -15 -17 -21 1 -6 -6 -13 -16 -14 -27
-5 -33 -15 -17 -26 12 -9 12 -10 -2 -5 -11 3 -26 -3 -38 -16 -20 -22 -28 -54
-10 -43 6 3 10 1 10 -4 0 -6 7 -11 15 -11 8 0 15 -4 15 -10 0 -5 8 -10 18 -10
14 0 15 -2 2 -10 -12 -8 -10 -10 8 -10 15 0 21 -4 16 -12 -5 -8 -2 -9 10 -5 9
4 15 3 13 -1 -2 -4 9 -20 25 -35 15 -15 28 -22 28 -15 1 7 7 2 15 -12 9 -16
15 -19 15 -10 1 9 5 5 11 -8 5 -13 13 -20 19 -17 6 4 9 3 8 -2 -2 -4 0 -9 4
-10 5 -2 17 -11 27 -20 64 -60 80 -71 85 -60 2 7 5 3 5 -7 1 -11 4 -17 7 -14
3 3 16 -5 30 -19 13 -13 28 -22 33 -18 5 3 12 -3 15 -13 4 -10 19 -25 34 -33
15 -8 35 -22 44 -32 9 -11 22 -16 27 -12 6 3 11 -2 11 -11 0 -10 3 -15 6 -11
3 3 15 -3 27 -13 11 -11 25 -17 30 -13 6 3 8 2 5 -3 -3 -5 0 -14 7 -21 11 -10
15 -10 18 0 3 7 6 4 6 -6 1 -10 5 -16 9 -13 5 3 14 -4 22 -14 8 -10 17 -17 22
-14 4 3 8 -3 9 -13 0 -11 3 -13 6 -5 3 9 10 7 24 -9 10 -12 19 -18 19 -13 0 5
5 2 10 -6 5 -8 15 -15 22 -15 7 -1 12 -6 10 -13 -1 -7 7 -12 19 -12 13 0 18
-4 13 -13 -5 -8 -2 -7 9 2 15 12 17 12 11 -3 -4 -10 -2 -16 4 -14 6 2 18 -6
27 -17 9 -11 14 -13 10 -5 -4 8 1 6 9 -4 9 -11 16 -16 16 -11 0 5 7 0 16 -11
8 -10 12 -12 8 -4 -4 8 5 3 20 -12 16 -15 32 -26 36 -23 4 3 10 -2 14 -10 3
-8 12 -15 21 -15 8 0 15 -4 15 -10 0 -5 5 -10 11 -10 6 0 17 -7 26 -15 8 -8
18 -13 23 -10 4 3 11 -2 14 -11 4 -9 13 -14 22 -10 8 3 12 2 9 -4 -3 -6 1 -10
10 -10 9 0 13 -5 10 -10 -3 -5 3 -10 14 -10 12 0 21 -4 21 -10 0 -5 9 -10 21
-10 13 0 18 -4 13 -12 -5 -8 -2 -9 9 -5 11 4 17 1 17 -8 0 -8 9 -15 21 -15 13
0 18 -4 13 -12 -5 -7 -2 -9 9 -5 9 3 18 -1 22 -11 5 -13 8 -14 14 -3 6 9 10 7
14 -9 3 -12 10 -19 16 -16 5 4 14 -2 20 -11 6 -10 11 -12 11 -5 0 6 5 12 12
12 6 0 9 -3 5 -6 -7 -8 17 -34 32 -34 6 0 11 -5 11 -11 0 -5 5 -7 10 -4 6 3
10 2 10 -4 0 -5 9 -8 20 -6 11 2 19 -1 17 -8 -1 -7 4 -11 11 -9 6 1 12 -2 12
-8 0 -5 7 -10 15 -10 8 0 15 -5 15 -11 0 -6 7 -8 16 -5 12 5 15 2 10 -11 -4
-10 -4 -14 0 -10 4 4 13 2 21 -5 11 -9 12 -7 8 8 -5 16 -4 15 7 -2 7 -12 19
-19 27 -16 8 3 11 0 7 -7 -6 -10 6 -15 27 -12 4 0 7 -4 7 -10 0 -5 4 -7 10 -4
6 3 10 2 10 -2 0 -5 9 -14 21 -21 17 -11 20 -11 14 0 -3 7 1 4 9 -6 9 -11 16
-17 16 -13 0 4 10 1 23 -8 13 -8 27 -12 31 -8 4 5 6 1 4 -7 -2 -9 4 -14 15
-14 9 1 17 -3 17 -8 0 -6 9 -8 20 -5 11 3 18 0 17 -6 -1 -6 8 -13 21 -15 14
-2 22 -9 19 -17 -4 -9 1 -11 14 -8 11 3 19 0 19 -6 0 -7 5 -9 10 -6 6 3 10 1
10 -5 0 -6 4 -8 10 -5 5 3 10 1 10 -6 0 -7 3 -9 7 -6 3 4 12 -1 20 -11 9 -10
12 -11 7 -2 -5 10 -1 9 14 -3 11 -11 26 -16 31 -12 6 3 11 2 11 -4 0 -13 90
-53 106 -47 8 3 11 -1 7 -10 -4 -10 2 -14 21 -14 14 0 26 -5 26 -11 0 -6 7 -9
15 -5 9 3 15 0 15 -9 0 -8 3 -14 8 -14 22 4 42 -2 37 -10 -3 -6 3 -8 14 -6 11
2 22 -3 25 -11 3 -9 10 -13 15 -10 5 4 16 0 24 -8 8 -8 17 -13 20 -10 2 3 26
-7 52 -21 26 -14 54 -25 62 -25 9 0 11 -5 7 -12 -5 -8 0 -7 11 2 11 9 16 10
11 2 -5 -8 0 -12 13 -12 12 0 21 -4 21 -10 0 -5 12 -10 26 -10 16 0 23 -4 18
-12 -5 -7 0 -9 14 -6 13 4 23 0 26 -9 4 -10 13 -12 27 -8 13 5 19 3 15 -3 -9
-15 20 -22 34 -9 9 9 11 9 7 1 -7 -13 19 -27 33 -19 4 3 14 -3 21 -12 12 -14
12 -16 0 -8 -10 5 -12 4 -7 -4 6 -9 11 -9 24 1 13 11 15 10 9 -4 -4 -11 -2
-15 7 -12 7 3 26 -1 42 -7 16 -7 33 -11 37 -10 5 1 22 -9 39 -21 19 -13 29
-16 24 -7 -4 7 0 5 8 -5 12 -15 16 -16 16 -5 1 11 3 11 13 -2 7 -9 20 -15 29
-13 10 1 18 -2 18 -7 0 -6 5 -7 10 -4 6 3 10 1 10 -4 0 -6 11 -11 25 -11 14 0
25 -5 25 -12 0 -6 3 -9 6 -5 4 3 19 0 35 -8 16 -9 40 -16 54 -17 14 -1 25 -7
25 -12 0 -5 3 -6 7 -3 3 4 14 0 24 -9 11 -10 19 -12 24 -5 4 8 11 6 21 -3 8
-9 22 -12 31 -9 11 4 14 3 9 -5 -6 -11 26 -18 57 -13 4 0 7 -4 7 -10 0 -6 6
-9 14 -6 8 3 17 0 19 -8 4 -8 19 -12 40 -11 20 1 33 -2 31 -6 -3 -5 1 -9 8
-10 14 -1 28 -4 41 -8 4 -1 13 -3 20 -4 6 -1 11 -8 9 -16 -3 -11 0 -11 12 0
12 9 16 10 16 0 0 -7 7 -10 15 -6 8 3 15 1 15 -5 0 -6 5 -7 11 -4 5 4 19 -1
29 -10 17 -15 22 -16 37 -4 11 9 14 10 9 1 -5 -8 0 -12 18 -12 13 0 27 -6 29
-12 4 -10 6 -10 6 0 1 10 5 10 17 -2 8 -9 20 -14 25 -11 5 4 9 0 9 -7 0 -8 3
-9 8 -3 9 13 35 18 27 5 -5 -9 15 -14 53 -13 6 1 12 -7 12 -16 0 -14 2 -14 10
-1 6 9 10 11 10 3 0 -7 7 -10 15 -6 9 3 23 -1 33 -9 9 -7 29 -13 45 -12 15 0
27 -2 27 -6 0 -4 6 -7 13 -8 22 -2 42 -7 55 -15 6 -5 16 -6 21 -2 5 3 12 1 16
-4 3 -6 13 -7 22 -4 12 5 14 3 8 -8 -7 -12 -6 -12 7 -1 11 9 17 9 20 2 2 -6
18 -12 36 -12 17 -1 32 -4 32 -7 0 -4 12 -8 28 -9 50 -3 62 -5 62 -13 0 -5 15
-7 34 -5 19 1 35 0 34 -3 -2 -19 4 -22 17 -11 11 9 15 9 15 1 0 -7 5 -9 10 -6
6 3 10 0 10 -7 0 -9 3 -9 10 2 6 9 10 10 10 3 0 -6 9 -10 20 -8 11 2 20 0 20
-4 0 -8 4 -9 60 -12 19 -1 40 -6 46 -11 6 -4 32 -9 58 -11 25 -1 46 -6 46 -10
0 -5 5 -5 11 -1 6 3 15 0 20 -7 7 -11 9 -11 9 -1 0 9 5 10 19 3 10 -6 21 -7
25 -4 3 3 6 1 6 -4 0 -6 8 -10 18 -8 9 1 23 -2 30 -8 8 -6 12 -6 12 2 0 7 8 8
24 1 13 -5 27 -6 30 -3 3 4 6 2 6 -3 0 -5 20 -10 45 -11 25 0 53 -7 62 -15 14
-11 16 -11 8 2 -7 12 -6 13 6 4 8 -5 24 -9 37 -8 12 0 22 -1 22 -5 0 -3 12 -7
28 -8 15 -1 45 -3 67 -6 22 -2 50 -5 63 -6 15 -1 21 -5 16 -13 -5 -7 -3 -8 7
-3 19 13 49 14 49 2 0 -5 7 -4 15 3 8 7 15 8 15 3 0 -10 16 -13 63 -13 15 0
27 -5 27 -10 0 -6 5 -8 12 -4 15 10 58 12 58 3 0 -4 14 -9 30 -11 17 -3 30 0
30 5 0 6 5 5 13 -1 6 -5 29 -8 50 -7 20 2 37 0 37 -4 0 -4 15 -7 33 -8 66 -3
204 -13 252 -18 28 -3 96 -6 152 -8 57 -1 103 -5 103 -9 0 -4 11 -3 24 2 13 5
27 6 30 2 12 -11 36 -10 36 1 0 8 3 8 8 2 10 -14 92 -17 92 -3 0 7 7 3 15 -8
8 -10 15 -14 15 -9 0 10 100 10 128 0 6 -2 12 0 12 5 0 5 12 5 29 0 19 -5 33
-4 40 3 7 7 11 7 11 1 0 -6 7 -11 15 -11 8 0 15 5 15 11 0 7 3 7 8 1 4 -5 21
-10 37 -10 17 0 33 5 37 10 5 6 8 6 8 -2 0 -8 9 -9 29 -3 19 5 33 4 40 -3 8
-8 11 -8 11 0 0 8 9 9 30 3 19 -5 30 -5 30 1 0 6 8 5 20 -1 11 -6 20 -7 20 -3
0 10 47 10 56 0 10 -10 34 4 27 17 -5 8 -3 8 8 0 18 -13 59 -16 59 -4 0 5 7 7
15 4 8 -4 12 -11 9 -16 -4 -6 3 -5 15 1 11 7 21 8 21 4 0 -4 5 -2 12 5 7 7 17
8 29 2 12 -7 20 -6 24 0 5 8 11 7 21 -1 11 -9 14 -9 14 1 0 8 3 11 6 8 3 -4
18 -2 34 2 16 4 31 6 34 2 8 -7 56 -9 56 -2 0 7 54 5 67 -3 6 -4 13 -3 17 1 4
3 23 7 42 8 19 2 41 7 48 13 7 6 16 8 20 4 8 -9 86 -11 86 -3 0 3 17 6 38 7
51 1 247 20 247 23 0 1 10 3 23 6 13 2 22 -1 22 -9 0 -8 2 -9 8 -1 4 6 28 14
55 17 26 3 51 8 56 12 5 3 12 -1 14 -7 4 -10 6 -10 6 -1 1 7 8 10 16 7 8 -4
15 -1 15 6 0 10 3 10 15 0 8 -7 15 -8 15 -3 0 5 12 10 28 10 23 1 51 5 112 16
8 1 20 6 25 9 6 4 17 3 24 -2 8 -4 27 -2 45 5 17 7 44 11 59 8 20 -3 27 0 22
8 -5 8 -1 9 13 5 11 -4 23 -3 26 3 3 5 15 7 26 4 11 -3 28 1 37 8 14 12 15 12
9 1 -7 -12 -4 -12 15 -1 13 7 35 13 49 14 68 3 81 6 76 14 -3 4 6 6 19 3 14
-2 33 2 42 9 15 12 16 12 8 -1 -7 -12 -6 -13 6 -4 8 6 24 10 37 9 12 -1 22 2
22 7 0 5 5 6 10 3 6 -3 10 0 10 7 0 10 2 10 9 -1 5 -8 11 -9 15 -3 3 6 14 9
24 7 9 -1 22 2 29 7 7 5 17 7 23 3 5 -3 10 -2 10 3 0 5 11 8 25 7 14 -2 25 2
25 8 0 5 3 7 7 4 3 -4 12 -2 20 4 9 8 13 8 13 1 0 -7 13 -6 35 4 20 8 40 12
45 9 6 -4 10 -2 10 3 0 5 6 9 13 9 6 0 26 4 42 8 17 3 36 7 43 7 6 1 12 4 12
7 0 3 11 7 25 8 44 4 55 6 55 13 0 3 11 7 25 8 57 5 65 7 65 16 0 5 3 6 7 3 3
-4 13 -1 21 6 13 10 14 9 7 -3 -8 -13 -6 -13 8 -2 9 8 20 11 26 8 5 -3 11 -1
13 5 2 6 16 12 31 12 15 0 27 3 27 7 0 4 10 7 23 6 12 -1 32 4 45 12 12 8 22
11 22 8 0 -3 16 1 36 9 20 8 40 12 45 9 5 -3 9 0 9 6 0 7 7 10 15 6 8 -3 15 0
15 6 0 6 3 8 7 5 3 -4 13 -1 21 6 13 10 14 9 7 -3 -7 -13 -5 -13 11 1 10 8 26
15 34 14 8 0 21 5 29 13 8 8 17 9 25 3 12 -9 40 12 29 22 -3 4 6 4 20 2 15 -3
32 1 41 10 9 9 17 11 21 5 4 -6 15 -4 30 6 13 9 29 13 35 9 5 -3 10 -1 10 5 0
6 4 9 9 5 5 -3 12 -1 16 5 4 6 10 8 15 5 4 -3 10 1 13 9 3 7 18 12 36 11 17
-1 31 2 31 6 0 10 87 39 94 31 3 -3 6 0 6 7 0 7 5 9 11 5 6 -3 14 -3 18 2 7
11 100 46 123 47 9 1 14 5 11 10 -3 5 1 8 8 6 28 -3 40 1 33 13 -4 7 -3 8 5 4
6 -4 18 -2 26 4 8 6 19 9 25 5 5 -3 10 -1 10 6 0 7 3 9 6 6 4 -4 20 3 37 15
17 12 27 16 23 10 -4 -7 9 -3 29 8 20 11 40 18 46 15 5 -4 9 -1 9 5 0 6 5 8
10 5 6 -3 10 -1 10 5 0 6 5 8 10 5 6 -3 10 -2 10 4 0 6 7 8 15 5 8 -4 17 1 21
9 3 9 13 13 26 9 16 -4 20 -1 16 10 -4 10 0 14 15 13 22 -2 57 13 68 28 3 5 9
8 13 8 23 -3 36 0 31 9 -3 6 1 7 9 4 9 -3 16 -1 16 5 0 6 3 10 8 9 14 -4 82
24 82 33 0 6 4 8 9 5 14 -9 42 5 34 17 -4 6 2 8 15 5 12 -4 25 -1 29 4 4 7 1
8 -7 3 -8 -5 -11 -4 -6 3 3 6 15 9 26 7 10 -2 24 3 30 11 7 7 16 11 21 8 5 -3
12 2 15 10 3 9 10 16 16 16 5 0 6 -6 3 -12 -4 -7 0 -6 7 3 7 9 22 19 33 21 11
2 19 9 18 15 -1 6 6 9 17 6 12 -3 20 0 20 7 0 7 8 10 20 7 11 -3 18 -1 15 3
-3 5 8 15 25 24 19 9 28 10 23 3 -5 -8 -2 -8 9 0 8 7 19 9 23 5 5 -4 5 -2 2 4
-4 7 1 18 10 25 14 12 16 12 9 -1 -6 -12 -4 -11 6 1 7 9 19 14 26 12 6 -3 12
0 12 7 0 6 5 8 10 5 6 -3 10 -1 10 5 0 6 4 9 9 5 5 -3 16 2 25 11 9 8 21 12
27 8 7 -4 9 -3 6 3 -6 9 15 21 45 27 4 0 14 10 23 21 9 11 13 14 10 7 -6 -11
-3 -11 13 -1 12 7 19 17 16 21 -3 4 2 5 10 2 9 -3 16 -1 16 6 0 6 5 8 11 5 5
-4 19 1 29 10 10 9 24 14 30 10 6 -3 9 -1 8 6 -2 7 2 13 9 14 7 0 21 8 32 17
11 9 22 14 25 11 3 -4 6 -1 6 6 0 7 4 10 9 7 5 -3 11 1 15 9 3 8 10 15 16 15
6 0 8 -6 5 -12 -4 -7 1 -4 9 6 9 11 16 16 16 10 0 -5 5 -2 10 6 5 8 14 15 20
15 6 0 14 6 19 13 5 8 10 13 12 11 9 -5 49 13 49 22 0 5 7 9 16 9 8 0 13 4 10
9 -3 5 1 12 10 15 10 4 13 2 9 -7 -4 -6 1 -3 9 7 9 11 16 16 16 12 0 -4 14 4
31 18 17 14 35 24 40 20 5 -3 9 -1 9 4 0 6 11 13 25 16 14 4 23 11 20 16 -3 6
-1 11 4 11 6 1 17 2 24 3 6 1 11 7 10 13 -1 6 5 10 15 9 9 -2 28 9 41 23 13
14 20 19 15 11 -5 -11 -2 -10 13 3 11 9 23 14 27 10 4 -5 6 -1 4 7 -2 8 2 14
9 15 7 0 19 9 28 20 9 11 14 13 10 5 -4 -10 -2 -9 8 2 8 10 17 15 20 11 4 -3
7 -1 7 6 0 7 5 9 10 6 6 -3 10 -1 10 5 0 6 5 8 12 4 7 -5 9 -2 5 9 -4 11 -2
14 9 10 7 -3 14 0 14 6 0 6 6 10 13 9 6 -2 11 3 9 10 -1 6 1 11 5 11 20 -3 34
2 28 11 -3 5 0 7 9 4 9 -3 20 3 27 14 7 12 19 18 27 14 9 -3 13 -1 9 4 -3 5 8
16 24 23 16 7 27 17 23 22 -3 5 4 9 15 9 12 0 21 5 21 10 0 6 6 10 14 10 8 0
21 9 29 21 11 15 16 17 20 7 3 -7 6 -2 6 12 1 20 3 22 11 10 8 -13 10 -12 10
3 0 10 5 15 11 12 12 -8 51 29 41 39 -3 4 1 4 10 1 11 -4 20 1 28 15 6 11 15
18 20 15 5 -3 14 4 20 15 6 11 15 18 20 15 5 -3 16 5 25 17 8 13 19 23 23 23
4 0 5 7 4 15 -2 10 2 8 12 -5 9 -12 15 -15 16 -7 0 17 26 43 44 46 7 1 28 16
45 34 18 18 37 32 43 32 6 0 8 6 5 14 -4 10 0 12 14 9 10 -3 19 0 19 6 0 6 10
21 22 33 19 19 21 20 15 2 -7 -18 -6 -18 6 -2 8 10 16 15 20 12 3 -3 8 4 12
15 3 12 11 19 16 16 5 -4 9 1 9 10 0 9 4 13 10 10 5 -3 21 6 35 21 14 15 25
24 25 20 0 -4 6 -1 14 6 8 7 12 16 9 21 -2 4 3 7 12 7 12 0 15 5 11 16 -5 14
-4 15 9 4 12 -10 15 -10 15 4 0 10 5 14 10 11 6 -3 10 2 10 12 0 15 2 16 10 3
7 -11 10 -12 10 -2 0 17 26 43 34 35 3 -4 6 -1 6 6 0 7 4 10 9 6 6 -3 8 3 6
14 -2 13 1 18 10 15 7 -3 16 0 20 5 3 6 11 9 16 5 5 -3 9 -2 8 3 -3 19 2 34 9
29 11 -7 42 30 34 40 -4 5 2 2 12 -6 13 -10 17 -10 12 -2 -4 7 -2 12 4 12 6 0
8 5 5 10 -3 6 1 10 10 10 11 0 15 5 12 14 -4 9 -1 13 7 10 11 -4 108 80 117
102 2 5 21 20 42 33 20 12 35 27 31 32 -3 5 4 9 16 9 12 0 19 4 16 8 -3 5 5
17 17 27 64 54 104 94 99 101 -4 4 1 4 11 1 11 -4 16 -3 12 3 -3 6 1 13 9 16
9 3 13 11 9 17 -4 6 0 8 10 4 10 -4 16 -2 14 6 -1 7 4 11 11 9 8 -1 11 2 7 8
-3 5 1 13 9 16 9 3 16 13 16 22 0 8 3 12 7 9 4 -4 25 12 46 35 22 24 44 42 49
40 4 -1 7 4 6 10 -2 7 3 12 10 10 6 -1 12 2 12 8 0 5 13 23 30 38 16 16 28 31
25 34 -3 2 6 11 20 18 14 7 25 19 25 27 0 7 4 12 9 11 5 -2 9 1 9 5 1 5 17 23
38 42 20 18 33 38 30 44 -5 7 -1 8 9 5 11 -5 18 0 22 15 3 11 9 18 14 15 8 -5
13 10 10 29 -1 5 3 6 8 3 11 -7 33 18 24 27 -3 4 0 7 7 7 19 0 87 77 84 95 -2
13 0 14 12 4 8 -7 14 -8 13 -3 -4 22 2 35 13 28 7 -5 9 -2 5 9 -4 12 -1 15 14
12 11 -2 17 0 13 6 -3 6 6 21 21 35 14 13 22 24 18 24 -4 0 0 5 10 11 9 6 15
15 11 20 -3 5 0 8 8 7 7 -2 12 2 11 9 -2 6 6 15 17 18 11 4 20 12 20 20 0 7
13 24 28 37 16 13 27 29 24 36 -2 7 3 12 11 12 8 0 21 8 28 18 13 16 12 16 -6
3 -11 -8 -8 -2 8 13 15 15 25 31 22 36 -3 5 0 12 6 16 8 4 9 3 5 -4 -4 -7 -2
-12 3 -12 6 0 11 9 11 20 0 11 4 19 9 18 5 -2 10 0 10 4 1 4 12 19 26 34 13
14 23 31 22 38 -1 6 6 10 17 8 11 -2 15 1 11 7 -3 6 -1 11 6 11 7 0 9 3 6 7
-4 3 1 12 11 20 9 8 11 11 3 7 -9 -5 -12 -3 -7 4 4 7 14 12 23 12 9 0 13 6 9
15 -3 8 0 15 7 15 16 0 49 55 40 64 -4 4 0 4 9 1 26 -10 16 28 -11 41 -16 8
-19 13 -9 17 9 4 7 6 -4 6 -10 1 -18 9 -18 18 0 9 -3 14 -6 10 -4 -3 -24 12
-44 33 -21 22 -44 40 -51 40 -7 0 -10 3 -6 6 8 9 -14 30 -41 38 -13 5 -22 16
-22 28 0 14 -5 18 -16 14 -8 -3 -13 -2 -11 2 6 9 -19 33 -27 25 -3 -4 -6 1 -6
10 0 10 -4 17 -10 17 -5 0 -10 7 -10 16 0 11 -6 15 -19 11 -15 -3 -18 0 -14
17 4 16 2 18 -5 7 -8 -11 -11 -9 -17 8 -3 12 -11 19 -16 16 -5 -4 -9 1 -9 10
0 9 -4 13 -10 10 -5 -3 -10 1 -10 10 0 9 -4 13 -10 10 -5 -3 -10 1 -10 9 0 9
-4 16 -10 16 -5 0 -45 36 -89 81 -44 44 -85 78 -90 74 -7 -4 -8 0 -4 11 5 14
3 16 -11 11 -14 -5 -17 -3 -12 8 3 9 0 15 -9 15 -7 0 -17 9 -20 20 -3 11 -11
20 -16 20 -6 0 -7 -6 -3 -12 4 -8 3 -10 -2 -5 -5 5 -9 14 -9 20 -1 7 -7 11
-14 9 -9 -2 -11 3 -7 13 3 9 2 14 -3 11 -5 -3 -17 5 -27 19 -10 13 -21 22 -26
19 -4 -3 -8 2 -8 11 0 9 -4 13 -10 10 -5 -3 -10 1 -10 9 0 8 -9 18 -20 21 -11
3 -20 13 -20 21 0 8 -3 14 -7 14 -14 0 -63 47 -56 54 3 3 1 6 -5 6 -7 0 -27
16 -46 36 -19 20 -39 33 -45 30 -7 -5 -8 -1 -4 10 4 12 3 15 -5 10 -7 -4 -12
-1 -12 9 0 9 -4 13 -10 10 -5 -3 -10 -1 -10 5 0 6 -4 8 -10 5 -5 -3 -7 0 -4 9
6 15 -28 40 -40 29 -3 -3 -6 3 -6 15 0 16 -4 20 -17 15 -12 -5 -15 -2 -10 10
6 15 -3 22 -25 18 -5 0 -8 4 -8 10 0 13 -58 69 -72 69 -5 0 -7 4 -3 9 3 5 -4
12 -15 16 -11 4 -18 10 -15 15 6 10 -23 22 -36 15 -5 -4 -6 1 -3 10 5 11 0 18
-15 22 -11 3 -21 10 -21 15 0 5 -5 6 -12 2 -7 -5 -8 -3 -3 6 10 16 -61 83 -78
73 -7 -4 -5 2 3 12 14 17 13 18 -4 12 -14 -6 -17 -4 -12 8 3 9 2 14 -3 11 -11
-7 -71 47 -71 64 0 6 -4 9 -8 6 -5 -3 -19 6 -30 19 -12 14 -27 25 -33 25 -5 0
-7 5 -4 10 3 6 -4 14 -17 19 -13 6 -19 10 -14 10 5 1 -1 10 -14 21 -13 12 -29
19 -36 16 -7 -3 -10 2 -7 14 3 12 -2 20 -16 25 -12 3 -21 11 -21 16 0 6 -5 7
-12 3 -7 -5 -9 -2 -6 7 4 10 -7 24 -28 38 -19 13 -34 28 -34 33 0 4 -12 13
-26 18 -14 6 -28 19 -31 30 -5 18 -15 24 -35 21 -4 0 -4 7 -1 17 3 9 3 14 -1
11 -4 -4 -39 24 -78 62 -38 38 -74 67 -78 64 -4 -3 -7 3 -6 12 0 10 -9 20 -24
24 -14 4 -18 8 -10 8 9 1 4 8 -13 17 -17 9 -25 20 -21 27 4 7 4 9 -1 5 -4 -4
-16 4 -27 17 -11 14 -23 23 -28 20 -5 -3 -12 0 -16 6 -4 8 -3 9 4 5 7 -4 12
-2 12 3 0 6 -9 11 -20 11 -18 0 -25 10 -21 32 0 5 -2 7 -7 7 -19 -3 -33 2 -28
10 3 5 -4 11 -15 14 -12 3 -18 10 -14 16 3 6 2 11 -3 11 -6 0 -39 29 -75 65
-36 36 -70 65 -75 65 -10 0 -26 29 -24 42 1 4 -6 4 -15 1 -11 -4 -14 -3 -9 5
4 7 3 12 -3 12 -5 0 -12 -6 -15 -12 -3 -7 -3 -3 0 10 4 16 1 22 -10 22 -9 0
-16 5 -16 11 0 5 -4 7 -10 4 -6 -4 -7 1 -3 11 5 13 3 16 -10 11 -9 -3 -19 -1
-23 5 -5 7 -2 8 7 2 8 -4 -2 8 -22 29 -20 20 -42 37 -49 37 -7 0 -10 3 -7 6 7
7 -30 44 -45 44 -4 0 -8 8 -8 17 0 9 -3 14 -6 10 -3 -3 -17 7 -31 23 -13 16
-33 32 -45 36 -17 5 -18 8 -7 16 10 7 8 8 -8 5 -12 -3 -22 -2 -21 2 2 19 -4
31 -16 31 -7 0 -20 8 -27 18 -13 16 -13 16 6 2 19 -14 19 -14 6 3 -8 10 -20
16 -27 13 -7 -3 -16 0 -20 6 -4 7 -3 8 4 4 16 -10 15 2 -2 19 -7 8 -16 11 -20
8 -3 -4 -6 1 -6 10 0 16 -12 22 -33 18 -5 -1 -6 3 -3 8 4 5 -3 16 -14 24 -11
7 -17 17 -12 21 4 4 2 7 -3 6 -18 -4 -35 0 -33 8 4 9 -39 52 -52 52 -5 0 -10
5 -10 11 0 13 -50 63 -50 51 0 -4 -5 1 -11 11 -6 9 -15 14 -21 11 -6 -4 -8 -3
-5 3 8 13 -27 46 -38 36 -4 -5 -5 1 -1 12 4 11 4 16 0 13 -4 -4 -19 6 -34 22
-15 16 -30 26 -34 23 -3 -3 -6 -1 -6 6 0 16 -26 42 -34 34 -3 -4 -6 -1 -6 6 0
7 -5 9 -12 5 -6 -4 -8 -3 -5 3 4 6 -6 21 -22 34 -16 13 -27 28 -24 33 3 5 1 6
-6 2 -6 -4 -14 0 -17 8 -3 9 -13 16 -21 16 -8 0 -11 5 -8 10 3 6 1 10 -5 10
-6 0 -8 5 -4 12 4 6 3 8 -4 5 -5 -4 -22 7 -36 24 -14 16 -30 28 -35 25 -5 -3
-12 1 -15 10 -4 10 -2 13 6 8 7 -4 8 -3 4 4 -4 7 -14 12 -22 12 -8 0 -14 5
-14 11 0 5 -4 7 -10 4 -6 -3 -7 1 -4 9 4 12 0 16 -16 16 -11 0 -18 5 -15 10 3
6 1 10 -5 10 -6 0 -8 5 -4 13 5 7 0 6 -11 -3 -11 -9 -16 -10 -11 -2 4 7 2 12
-4 12 -6 0 -9 3 -7 8 6 9 -39 52 -47 45 -3 -4 -6 1 -6 10 0 10 -7 17 -16 17
-8 0 -12 5 -9 10 3 6 2 10 -3 10 -15 0 -181 167 -174 175 3 3 -1 3 -10 0 -11
-4 -22 5 -38 29 -23 38 -38 50 -20 16 18 -33 3 -22 -20 15 -12 19 -28 35 -36
35 -13 0 -19 13 -15 33 1 5 -3 6 -9 2 -5 -3 -10 -1 -10 4 0 6 -7 11 -17 11 -9
0 -14 3 -10 6 8 8 -18 34 -33 34 -6 0 -8 5 -5 10 3 6 2 10 -4 10 -5 0 -45 36
-89 80 -44 44 -85 80 -92 80 -6 0 -8 5 -5 10 3 6 -1 10 -9 10 -9 0 -16 7 -16
16 0 11 -5 14 -16 10 -11 -4 -15 -2 -11 6 6 16 -14 36 -31 30 -7 -2 -11 2 -10
9 2 7 -2 13 -9 14 -6 0 -15 4 -20 9 -5 5 -3 6 5 2 6 -4 12 -3 12 2 0 5 -12 14
-26 20 -15 7 -22 17 -18 24 4 6 3 8 -3 5 -5 -3 -16 3 -23 14 -8 10 -21 19 -29
19 -8 0 -12 2 -9 5 6 6 -59 75 -71 75 -3 0 -19 16 -35 35 -16 19 -33 32 -37
29 -5 -3 -9 2 -9 11 0 8 -7 18 -15 21 -8 4 -12 11 -8 18 4 6 -1 5 -11 -3 -9
-8 -16 -10 -15 -5 4 22 -2 34 -18 34 -15 0 -16 2 -3 10 13 8 12 10 -5 11 -11
1 -24 0 -30 -1 -5 -1 -7 2 -3 5 12 12 -12 47 -27 41 -10 -3 -12 0 -8 11 4 11
2 14 -5 9 -7 -4 -12 -2 -12 4 0 6 -5 8 -10 5 -6 -4 -9 -1 -8 7 2 7 -3 12 -9
11 -7 -2 -12 1 -10 5 3 11 -90 102 -97 94 -3 -3 -6 0 -6 7 0 18 -53 61 -69 55
-11 -4 -12 -2 -1 11 10 13 9 15 -8 15 -12 0 -24 5 -28 12 -5 7 -2 8 7 3 8 -4
0 6 -18 23 -17 16 -29 33 -26 36 4 3 3 6 0 6 -3 0 -11 -10 -18 -21z m-6459
-3003 c0 -2 -8 -10 -17 -17 -16 -13 -17 -12 -4 4 13 16 21 21 21 13z m9841
-203 c13 -16 12 -17 -3 -4 -10 7 -18 15 -18 17 0 8 8 3 21 -13z m1195 -1135
l19 -23 -25 20 c-14 11 -27 21 -29 22 -2 2 0 3 6 3 5 0 18 -10 29 -22z
m-14136 -1612 c0 -2 -8 -10 -17 -17 -16 -13 -17 -12 -4 4 13 16 21 21 21 13z"/>
<path d="M8529 8833 c-13 -16 -12 -17 4 -4 9 7 17 15 17 17 0 8 -8 3 -21 -13z"/>
<path d="M7250 7609 c0 -5 5 -7 10 -4 6 3 10 8 10 11 0 2 -4 4 -10 4 -5 0 -10
-5 -10 -11z"/>
<path d="M18039 4723 c-13 -16 -12 -17 4 -4 16 13 21 21 13 21 -2 0 -10 -8
-17 -17z"/>
</g>
</svg>
